<svg aria-hidden="true" style="position: absolute; width: 0; height: 0; overflow: hidden;" version="1.1" xmlns="http://www.w3.org/2000/svg" xmlns:xlink="http://www.w3.org/1999/xlink">
<defs>
<symbol id="icon-Theme" viewBox="0 0 32 32">
<path d="M16 29.333c-7.347 0-13.333-5.987-13.333-13.333s5.987-13.333 13.333-13.333c7.347 0 13.333 5.387 13.333 12 0 4.413-3.587 8-8 8h-2.36c-0.373 0-0.667 0.293-0.667 0.667 0 0.16 0.067 0.307 0.173 0.44 0.547 0.627 0.853 1.413 0.853 2.227 0 1.84-1.493 3.333-3.333 3.333v0zM16 5.333c-5.88 0-10.667 4.787-10.667 10.667s4.787 10.667 10.667 10.667c0.373 0 0.667-0.293 0.667-0.667 0-0.213-0.107-0.373-0.187-0.467-0.547-0.613-0.84-1.4-0.84-2.2 0-1.84 1.493-3.333 3.333-3.333h2.36c2.947 0 5.333-2.387 5.333-5.333 0-5.147-4.787-9.333-10.667-9.333z"></path>
<path d="M8.667 17.333c1.105 0 2-0.895 2-2s-0.895-2-2-2c-1.105 0-2 0.895-2 2s0.895 2 2 2z"></path>
<path d="M12.667 12c1.105 0 2-0.895 2-2s-0.895-2-2-2c-1.105 0-2 0.895-2 2s0.895 2 2 2z"></path>
<path d="M19.333 12c1.105 0 2-0.895 2-2s-0.895-2-2-2c-1.105 0-2 0.895-2 2s0.895 2 2 2z"></path>
<path d="M23.333 17.333c1.105 0 2-0.895 2-2s-0.895-2-2-2c-1.105 0-2 0.895-2 2s0.895 2 2 2z"></path>
</symbol>
<symbol id="icon-01d" viewBox="0 0 32 32">
<path d="M16 9.416c-3.631 0-6.584 2.953-6.584 6.584s2.953 6.584 6.584 6.584c3.631 0 6.584-2.953 6.584-6.584s-2.953-6.584-6.584-6.584zM16 10.305c3.151 0 5.695 2.545 5.695 5.695s-2.545 5.695-5.695 5.695c-3.151 0-5.695-2.545-5.695-5.695s2.545-5.695 5.695-5.695z"></path>
<path d="M15.561 4.148h0.878v4.39h-0.878z"></path>
<path d="M15.561 23.462h0.878v4.39h-0.878z"></path>
<path d="M23.462 16.439v-0.878h4.39v0.878z"></path>
<path d="M4.148 16.439v-0.878h4.39v0.878z"></path>
<path d="M7.33 7.951l0.621-0.621 3.104 3.104-0.621 0.621z"></path>
<path d="M21.625 11.077l-0.621-0.621 3.104-3.104 0.621 0.621z"></path>
<path d="M7.973 24.729l-0.621-0.621 3.104-3.104 0.621 0.621z"></path>
<path d="M20.968 21.589l0.621-0.621 3.104 3.104-0.621 0.621z"></path>
</symbol>
<symbol id="icon-01n" viewBox="0 0 32 32">
<path d="M27.881 20.707l0.802 0.383 1.137-2.382-2.346 1.209 0.407 0.79zM10.872 4.207l0.802 0.383 1.137-2.382-2.346 1.209 0.407 0.79zM27.474 19.917c-1.591 0.82-3.396 1.283-5.312 1.283v1.778c2.206 0 4.29-0.534 6.127-1.481l-0.814-1.58zM22.162 21.2c-6.414 0-11.614-5.2-11.614-11.614h-1.778c0 7.396 5.996 13.391 13.392 13.391v-1.778zM10.548 9.586c0-1.79 0.405-3.484 1.126-4.996l-1.604-0.766c-0.833 1.746-1.3 3.701-1.3 5.762h1.778zM4.978 15.328c0-4.498 2.557-8.401 6.302-10.331l-0.814-1.58c-4.313 2.222-7.265 6.721-7.265 11.911h1.778zM16.592 26.942c-6.414 0-11.614-5.2-11.614-11.614h-1.778c0 7.396 5.996 13.392 13.392 13.392v-1.778zM27.079 20.324c-1.869 3.916-5.863 6.618-10.487 6.618v1.778c5.335 0 9.939-3.119 12.092-7.63l-1.604-0.766z"></path>
</symbol>
<symbol id="icon-02d" viewBox="0 0 32 32">
<path d="M15.561 4.148h0.878v4.39h-0.878zM16 21.695c1.828 0 3.454-0.861 4.496-2.199h1.084c-1.078 1.716-2.925 2.9-5.059 3.068-0.464-1.186-1.855-0.839-1.855-0.839s0.009-0.070 0.007-0.185c0.426 0.101 0.87 0.155 1.326 0.155zM11.728 19.767c-0.042-0.048-0.084-0.097-0.125-0.146 0.068 0.095 0.101 0.157 0.101 0.157s0.008-0.004 0.024-0.011zM11.445 19.42c-0.716-0.952-1.141-2.137-1.141-3.42 0-3.146 2.55-5.695 5.695-5.695 2.282 0 4.25 1.342 5.159 3.28 0.14-0.061 0.294-0.11 0.464-0.143 0.149-0.029 0.291-0.044 0.425-0.048-1.010-2.34-3.338-3.978-6.048-3.978-3.636 0-6.584 2.948-6.584 6.584 0 0.931 0.193 1.816 0.541 2.619 0.726 0.074 1.217 0.489 1.488 0.801zM7.956 24.711l0.018 0.018 0.018-0.018zM15.561 24.629v3.223h0.878v-3.89c-0.239 0.364-0.625 0.567-0.878 0.667zM27.852 16.439h-0.794c0.007-0.146 0.001-0.497-0.171-0.878h0.965zM4.148 15.561v0.878h4.39v-0.878zM7.33 7.951l0.621-0.621 3.104 3.104-0.621 0.621zM21.004 10.456l0.621 0.621 3.104-3.104-0.621-0.621zM21.589 20.968l-0.621 0.621 3.104 3.104 0.621-0.621z"></path>
<path d="M9.846 18.168c-0.217-0.011-0.449 0.004-0.693 0.052h-0c-0.998 0.195-1.579 0.879-1.866 1.471-0.14 0.288-0.22 0.564-0.267 0.773-0.198 0.035-0.45 0.098-0.712 0.225-0.561 0.271-1.18 0.88-1.286 1.914-0.107 1.050 0.454 1.767 1.003 2.119s1.113 0.428 1.113 0.428l0.032 0.005h8.194l0.050-0.011c0 0 0.492-0.107 0.947-0.458s0.887-1.047 0.677-1.956v-0c-0.209-0.904-0.89-1.34-1.444-1.451-0.189-0.038-0.359-0.044-0.514-0.041-0.075-0.483-0.315-1.182-1.063-1.668-0.833-0.54-1.67-0.44-2.135-0.316-0.118-0.152-0.28-0.335-0.499-0.509-0.359-0.285-0.883-0.545-1.535-0.577zM9.811 19.051c0.445 0.017 0.767 0.193 1.016 0.39 0.332 0.264 0.485 0.546 0.485 0.546l0.204 0.38 0.386-0.192c0 0 0.784-0.408 1.629 0.14v-0c0.841 0.546 0.695 1.35 0.695 1.35l-0.087 0.649 0.635-0.158c0 0 0.315-0.072 0.643-0.006s0.615 0.183 0.753 0.78c0.137 0.593-0.076 0.837-0.354 1.051-0.254 0.196-0.523 0.272-0.571 0.285h-7.998c-0.028-0.005-0.392-0.068-0.743-0.293-0.365-0.234-0.673-0.548-0.598-1.28 0.076-0.747 0.426-1.029 0.788-1.204s0.707-0.178 0.707-0.178h0.411l0.032-0.409c0 0 0.033-0.392 0.242-0.823s0.547-0.852 1.237-0.987c0.178-0.035 0.34-0.047 0.488-0.041z"></path>
<path d="M22.231 12.953c-0.217-0.011-0.449 0.004-0.693 0.052h-0c-0.998 0.195-1.579 0.879-1.866 1.471-0.14 0.288-0.22 0.564-0.267 0.774-0.198 0.035-0.45 0.098-0.712 0.225-0.561 0.271-1.18 0.88-1.286 1.914v0c-0.107 1.050 0.454 1.767 1.003 2.119s1.113 0.428 1.113 0.428l0.032 0.005h8.194l0.050-0.011c0 0 0.492-0.107 0.947-0.458s0.887-1.047 0.677-1.956v-0c-0.209-0.904-0.89-1.34-1.444-1.451-0.189-0.038-0.359-0.044-0.514-0.041-0.075-0.483-0.314-1.182-1.063-1.668-0.833-0.54-1.67-0.44-2.135-0.316-0.118-0.152-0.28-0.335-0.499-0.509-0.359-0.285-0.883-0.545-1.535-0.577zM22.197 13.836c0.445 0.017 0.767 0.193 1.016 0.39 0.332 0.264 0.485 0.546 0.485 0.546l0.204 0.38 0.386-0.192c0 0 0.784-0.408 1.629 0.14v-0c0.841 0.546 0.695 1.35 0.695 1.35l-0.087 0.649 0.635-0.158c0 0 0.315-0.072 0.643-0.006s0.615 0.183 0.753 0.78c0.137 0.593-0.076 0.837-0.354 1.051-0.254 0.196-0.523 0.272-0.571 0.285h-7.998c-0.028-0.005-0.392-0.068-0.743-0.293-0.365-0.234-0.673-0.548-0.598-1.28 0.076-0.747 0.426-1.029 0.788-1.204s0.707-0.178 0.707-0.178h0.411l0.032-0.409c0 0 0.033-0.392 0.242-0.823s0.547-0.852 1.237-0.987c0.178-0.035 0.34-0.047 0.488-0.041z"></path>
</symbol>
<symbol id="icon-02n" viewBox="0 0 32 32">
<path d="M25.729 22.497c-1.136 0.313-2.333 0.481-3.568 0.481-2.94 0-5.659-0.948-7.868-2.554-0.127-0.17-0.296-0.335-0.521-0.481-0.098-0.064-0.197-0.117-0.294-0.161-2.882-2.456-4.709-6.113-4.709-10.196 0-1.093 0.131-2.156 0.379-3.174-2.55 2.131-4.171 5.335-4.171 8.916 0 2.096 0.555 4.062 1.527 5.76-0.245 0.118-0.497 0.299-0.694 0.576-1.094-1.858-1.722-4.023-1.722-6.335 0-4.31 2.181-8.11 5.499-10.358 0.411-0.279 0.84-0.534 1.285-0.763-0.207 0.434-0.39 0.881-0.546 1.34-0.432 1.267-0.667 2.625-0.667 4.038 0 6.905 5.598 12.503 12.503 12.503 1.547 0 3.029-0.281 4.396-0.795 0.454-0.171 0.896-0.367 1.323-0.587-0.215 0.451-0.457 0.888-0.723 1.308-2.217 3.496-6.121 5.816-10.566 5.816-3.168 0-6.060-1.178-8.263-3.12h1.418c1.92 1.403 4.286 2.231 6.845 2.231 3.708 0 7.011-1.738 9.138-4.445z"></path>
<path d="M9.846 18.168c-0.217-0.011-0.449 0.004-0.693 0.052h-0c-0.998 0.195-1.579 0.879-1.866 1.471-0.14 0.288-0.22 0.564-0.267 0.773-0.198 0.035-0.45 0.098-0.712 0.225-0.561 0.271-1.18 0.88-1.286 1.914-0.107 1.050 0.454 1.767 1.003 2.119s1.113 0.428 1.113 0.428l0.032 0.005h8.194l0.050-0.011c0 0 0.492-0.107 0.947-0.458s0.887-1.047 0.677-1.956v-0c-0.209-0.904-0.89-1.34-1.444-1.451-0.189-0.038-0.359-0.044-0.514-0.041-0.075-0.483-0.315-1.182-1.063-1.668-0.833-0.54-1.67-0.44-2.135-0.316-0.118-0.152-0.28-0.335-0.499-0.509-0.359-0.285-0.883-0.545-1.535-0.577zM9.811 19.051c0.445 0.017 0.767 0.193 1.016 0.39 0.332 0.264 0.485 0.546 0.485 0.546l0.204 0.38 0.386-0.192c0 0 0.784-0.408 1.629 0.14v-0c0.841 0.546 0.695 1.35 0.695 1.35l-0.087 0.649 0.635-0.158c0 0 0.315-0.072 0.643-0.006s0.615 0.183 0.753 0.78c0.137 0.593-0.076 0.837-0.354 1.051-0.254 0.196-0.523 0.272-0.571 0.285h-7.998c-0.028-0.005-0.392-0.068-0.743-0.293-0.365-0.234-0.673-0.548-0.598-1.28 0.076-0.747 0.426-1.029 0.788-1.204s0.707-0.178 0.707-0.178h0.411l0.032-0.409c0 0 0.033-0.392 0.242-0.823s0.547-0.852 1.237-0.987c0.178-0.035 0.34-0.047 0.488-0.041z"></path>
<path d="M22.231 12.953c-0.217-0.011-0.449 0.004-0.693 0.052h-0c-0.998 0.195-1.579 0.879-1.866 1.471-0.14 0.288-0.22 0.564-0.267 0.774-0.198 0.035-0.45 0.098-0.712 0.225-0.561 0.271-1.18 0.88-1.286 1.914v0c-0.107 1.050 0.454 1.767 1.003 2.119s1.113 0.428 1.113 0.428l0.032 0.005h8.194l0.050-0.011c0 0 0.492-0.107 0.947-0.458s0.887-1.047 0.677-1.956v-0c-0.209-0.904-0.89-1.34-1.444-1.451-0.189-0.038-0.359-0.044-0.514-0.041-0.075-0.483-0.314-1.182-1.063-1.668-0.833-0.54-1.67-0.44-2.135-0.316-0.118-0.152-0.28-0.335-0.499-0.509-0.359-0.285-0.883-0.545-1.535-0.577zM22.197 13.836c0.445 0.017 0.767 0.193 1.016 0.39 0.332 0.264 0.485 0.546 0.485 0.546l0.204 0.38 0.386-0.192c0 0 0.784-0.408 1.629 0.14v-0c0.841 0.546 0.695 1.35 0.695 1.35l-0.087 0.649 0.635-0.158c0 0 0.315-0.072 0.643-0.006s0.615 0.183 0.753 0.78c0.137 0.593-0.076 0.837-0.354 1.051-0.254 0.196-0.523 0.272-0.571 0.285h-7.998c-0.028-0.005-0.392-0.068-0.743-0.293-0.365-0.234-0.673-0.548-0.598-1.28 0.076-0.747 0.426-1.029 0.788-1.204s0.707-0.178 0.707-0.178h0.411l0.032-0.409c0 0 0.033-0.392 0.242-0.823s0.547-0.852 1.237-0.987c0.178-0.035 0.34-0.047 0.488-0.041z"></path>
</symbol>
<symbol id="icon-03d" viewBox="0 0 32 32">
<path d="M19.966 3.2h-0.88v4.401h0.88zM24.377 18.099c0.546-0.876 0.861-1.91 0.861-3.018 0-3.155-2.557-5.712-5.712-5.712-2.451 0-4.541 1.543-5.352 3.711-0.263-0.113-0.543-0.21-0.842-0.285 0.93-2.519 3.352-4.315 6.194-4.315 3.645 0 6.601 2.955 6.601 6.601 0 1.511-0.507 2.903-1.361 4.015-0.086-0.316-0.211-0.654-0.389-0.998zM25.806 20.739c-0.521 0.028-0.873 0.116-0.873 0.116s0.031-0.234 0.014-0.61l0.182-0.182zM31.407 14.641h-4.401v0.88h4.401zM11.457 6.39l-0.622 0.622 3.112 3.112 0.622-0.622zM25.165 10.146l-0.622-0.622 3.112-3.112 0.622 0.622z"></path>
<path d="M12.201 12.187c-0.516-0.024-1.070 0.013-1.659 0.128-2.378 0.466-3.71 2.057-4.403 3.488-0.477 0.985-0.665 1.886-0.741 2.372-0.464 0.044-1.289 0.173-2.176 0.603-1.315 0.636-2.725 1.976-2.98 4.472-0.256 2.512 1.015 4.074 2.312 4.907s2.645 1.024 2.645 1.024l0.032 0.005 21.503-0.011c0 0 1.162-0.263 2.216-1.078s2.013-2.282 1.519-4.422c-0.493-2.135-1.965-3.025-3.24-3.282-0.736-0.148-1.394-0.113-1.843-0.058-0.035-1.013-0.383-3.138-2.565-4.557-2.398-1.559-4.707-0.912-5.516-0.607-0.25-0.376-0.725-1.010-1.482-1.612-0.856-0.681-2.072-1.299-3.62-1.371zM12.167 13.070c1.342 0.057 2.355 0.59 3.101 1.184 0.995 0.791 1.466 1.67 1.466 1.67l0.204 0.381 0.387-0.193c0 0 2.461-1.247 5.011 0.411 2.546 1.655 2.157 4.274 2.157 4.274l-0.087 0.649 0.635-0.159c0 0 0.965-0.234 2.012-0.023s2.127 0.781 2.55 2.611c0.422 1.825-0.32 2.841-1.196 3.519-0.823 0.637-1.723 0.876-1.832 0.904h-21.271c-0.068-0.011-1.19-0.195-2.269-0.888-1.113-0.714-2.131-1.875-1.908-4.069 0.225-2.209 1.366-3.222 2.483-3.762s2.178-0.544 2.178-0.544h0.411l0.032-0.409c0 0 0.094-1.164 0.709-2.434s1.704-2.598 3.774-3.003c0.523-0.102 1.007-0.136 1.454-0.117z"></path>
</symbol>
<symbol id="icon-03n" viewBox="0 0 32 32">
<path d="M27.442 18.341c0.807 0 1.594-0.088 2.351-0.256-1.098 1.238-2.529 2.173-4.153 2.665 0.5-0.041 1.205-0.036 1.912 0.181 1.492-0.767 2.765-1.899 3.701-3.279 0.28-0.413 0.53-0.848 0.747-1.302-0.425 0.219-0.869 0.409-1.327 0.566-1.013 0.347-2.1 0.536-3.232 0.536-1.664 0-3.233-0.408-4.612-1.129 0.648 0.471 1.1 1.006 1.416 1.54 1.010 0.311 2.084 0.478 3.196 0.478zM19.841 15.235c0.633 0.039 1.333 0.188 2.052 0.53-2.664-1.789-4.417-4.829-4.417-8.279 0-1.025 0.155-2.013 0.442-2.944 0.143-0.463 0.319-0.912 0.525-1.343-0.447 0.23-0.874 0.493-1.278 0.786-2.501 1.81-4.128 4.754-4.128 8.077 0 0.225 0.007 0.449 0.022 0.67 0.325 0.065 0.63 0.156 0.914 0.265-0.032-0.308-0.048-0.62-0.048-0.936 0-2.602 1.095-4.95 2.851-6.605-0.124 0.658-0.189 1.336-0.189 2.029 0 3.035 1.245 5.779 3.253 7.748z"></path>
<path d="M12.201 12.187c-0.516-0.024-1.070 0.013-1.659 0.128-2.378 0.466-3.71 2.057-4.403 3.488-0.477 0.985-0.665 1.886-0.741 2.372-0.464 0.044-1.289 0.173-2.176 0.603-1.315 0.636-2.725 1.976-2.98 4.472-0.256 2.512 1.015 4.074 2.312 4.907s2.645 1.024 2.645 1.024l0.032 0.005 21.503-0.011c0 0 1.162-0.263 2.216-1.078s2.013-2.282 1.519-4.422c-0.493-2.135-1.965-3.025-3.24-3.282-0.736-0.148-1.394-0.113-1.843-0.058-0.035-1.013-0.383-3.138-2.565-4.557-2.398-1.559-4.707-0.912-5.516-0.607-0.25-0.376-0.725-1.010-1.482-1.612-0.856-0.681-2.072-1.299-3.62-1.371zM12.167 13.070c1.342 0.057 2.355 0.59 3.101 1.184 0.995 0.791 1.466 1.67 1.466 1.67l0.204 0.381 0.387-0.193c0 0 2.461-1.247 5.011 0.411 2.546 1.655 2.157 4.274 2.157 4.274l-0.087 0.649 0.635-0.159c0 0 0.965-0.234 2.012-0.023s2.127 0.781 2.55 2.611c0.422 1.825-0.32 2.841-1.196 3.519-0.823 0.637-1.723 0.876-1.832 0.904h-21.271c-0.068-0.011-1.19-0.195-2.269-0.888-1.113-0.714-2.131-1.875-1.908-4.069 0.225-2.209 1.366-3.222 2.483-3.762s2.178-0.544 2.178-0.544h0.411l0.032-0.409c0 0 0.094-1.164 0.709-2.434s1.704-2.598 3.774-3.003c0.523-0.102 1.007-0.136 1.454-0.117z"></path>
</symbol>
<symbol id="icon-04d" viewBox="0 0 32 32">
<path d="M12.794 7.505c-0.516-0.024-1.070 0.013-1.659 0.128-2.378 0.466-3.71 2.057-4.403 3.488-0.477 0.985-0.665 1.886-0.741 2.372-0.464 0.044-1.289 0.173-2.176 0.603-1.315 0.636-2.725 1.976-2.98 4.472-0.256 2.512 1.015 4.074 2.312 4.907s2.645 1.024 2.645 1.024l0.032 0.005 21.503-0.011c0 0 1.162-0.263 2.216-1.078s2.013-2.282 1.519-4.422c-0.493-2.135-1.965-3.025-3.24-3.282-0.736-0.148-1.394-0.113-1.843-0.058-0.035-1.013-0.383-3.138-2.565-4.557-2.398-1.559-4.707-0.912-5.516-0.607-0.25-0.376-0.725-1.009-1.482-1.612-0.856-0.681-2.072-1.299-3.62-1.371zM12.76 8.388c1.342 0.057 2.355 0.59 3.101 1.184 0.995 0.791 1.466 1.67 1.466 1.67l0.204 0.381 0.387-0.193c0 0 2.461-1.247 5.011 0.411 2.546 1.655 2.157 4.274 2.157 4.274l-0.087 0.649 0.635-0.159c0 0 0.965-0.234 2.012-0.023s2.127 0.781 2.55 2.611c0.422 1.825-0.32 2.841-1.196 3.519-0.823 0.637-1.723 0.876-1.832 0.904h-21.271c-0.068-0.011-1.19-0.195-2.269-0.888-1.113-0.714-2.131-1.875-1.908-4.069 0.225-2.209 1.366-3.222 2.483-3.762s2.178-0.544 2.178-0.544h0.411l0.032-0.409c0 0 0.094-1.164 0.709-2.434s1.704-2.598 3.774-3.003c0.523-0.102 1.007-0.136 1.454-0.117z"></path>
</symbol>
<symbol id="icon-04n" viewBox="0 0 32 32">
<path d="M12.794 7.505c-0.516-0.024-1.070 0.013-1.659 0.128-2.378 0.466-3.71 2.057-4.403 3.488-0.477 0.985-0.665 1.886-0.741 2.372-0.464 0.044-1.289 0.173-2.176 0.603-1.315 0.636-2.725 1.976-2.98 4.472-0.256 2.512 1.015 4.074 2.312 4.907s2.645 1.024 2.645 1.024l0.032 0.005 21.503-0.011c0 0 1.162-0.263 2.216-1.078s2.013-2.282 1.519-4.422c-0.493-2.135-1.965-3.025-3.24-3.282-0.736-0.148-1.394-0.113-1.843-0.058-0.035-1.013-0.383-3.138-2.565-4.557-2.398-1.559-4.707-0.912-5.516-0.607-0.25-0.376-0.725-1.009-1.482-1.612-0.856-0.681-2.072-1.299-3.62-1.371zM12.76 8.388c1.342 0.057 2.355 0.59 3.101 1.184 0.995 0.791 1.466 1.67 1.466 1.67l0.204 0.381 0.387-0.193c0 0 2.461-1.247 5.011 0.411 2.546 1.655 2.157 4.274 2.157 4.274l-0.087 0.649 0.635-0.159c0 0 0.965-0.234 2.012-0.023s2.127 0.781 2.55 2.611c0.422 1.825-0.32 2.841-1.196 3.519-0.823 0.637-1.723 0.876-1.832 0.904h-21.271c-0.068-0.011-1.19-0.195-2.269-0.888-1.113-0.714-2.131-1.875-1.908-4.069 0.225-2.209 1.366-3.222 2.483-3.762s2.178-0.544 2.178-0.544h0.411l0.032-0.409c0 0 0.094-1.164 0.709-2.434s1.704-2.598 3.774-3.003c0.523-0.102 1.007-0.136 1.454-0.117z"></path>
</symbol>
<symbol id="icon-09d" viewBox="0 0 32 32">
<path d="M12.794 3.95c-0.516-0.024-1.070 0.013-1.659 0.128-2.378 0.466-3.71 2.057-4.403 3.488-0.477 0.985-0.665 1.886-0.741 2.372-0.464 0.044-1.289 0.173-2.176 0.603-1.315 0.636-2.725 1.976-2.98 4.472-0.256 2.512 1.015 4.074 2.312 4.907s2.645 1.024 2.645 1.024l0.032 0.005 21.503-0.011c0 0 1.162-0.263 2.216-1.078s2.013-2.282 1.519-4.422c-0.493-2.135-1.965-3.025-3.24-3.282-0.736-0.148-1.394-0.113-1.843-0.058-0.035-1.013-0.383-3.138-2.565-4.557-2.398-1.559-4.707-0.912-5.516-0.607-0.25-0.376-0.725-1.010-1.482-1.612-0.856-0.681-2.072-1.299-3.62-1.371zM12.76 4.833c1.342 0.057 2.355 0.59 3.101 1.184 0.995 0.791 1.466 1.67 1.466 1.67l0.204 0.381 0.387-0.193c0 0 2.461-1.247 5.011 0.411 2.546 1.655 2.157 4.274 2.157 4.274l-0.087 0.649 0.635-0.159c0 0 0.965-0.234 2.012-0.023s2.127 0.781 2.55 2.611c0.422 1.825-0.32 2.841-1.196 3.519-0.823 0.637-1.723 0.876-1.832 0.904h-21.271c-0.068-0.011-1.19-0.195-2.269-0.888-1.113-0.714-2.131-1.875-1.908-4.069 0.225-2.209 1.366-3.222 2.483-3.762s2.178-0.544 2.178-0.544h0.411l0.032-0.409c0 0 0.094-1.164 0.709-2.434s1.704-2.598 3.774-3.003c0.523-0.102 1.007-0.136 1.454-0.117z"></path>
<path d="M7.328 23.226c0.238 0.064 0.378 0.306 0.314 0.544l-0.92 3.434c-0.064 0.238-0.306 0.378-0.544 0.314s-0.378-0.306-0.314-0.544l0.92-3.434c0.064-0.238 0.306-0.378 0.544-0.314z"></path>
<path d="M15.565 23.226c0.238 0.064 0.378 0.306 0.314 0.544l-0.92 3.434c-0.064 0.238-0.306 0.378-0.544 0.314s-0.378-0.306-0.314-0.544l0.92-3.434c0.064-0.238 0.306-0.378 0.544-0.314z"></path>
<path d="M23.802 22.989c0.238 0.064 0.378 0.306 0.314 0.544l-0.92 3.434c-0.064 0.238-0.306 0.378-0.544 0.314s-0.378-0.306-0.314-0.544l0.92-3.434c0.064-0.238 0.306-0.378 0.544-0.314z"></path>
</symbol>
<symbol id="icon-09n" viewBox="0 0 32 32">
<path d="M12.794 3.95c-0.516-0.024-1.070 0.013-1.659 0.128-2.378 0.466-3.71 2.057-4.403 3.488-0.477 0.985-0.665 1.886-0.741 2.372-0.464 0.044-1.289 0.173-2.176 0.603-1.315 0.636-2.725 1.976-2.98 4.472-0.256 2.512 1.015 4.074 2.312 4.907s2.645 1.024 2.645 1.024l0.032 0.005 21.503-0.011c0 0 1.162-0.263 2.216-1.078s2.013-2.282 1.519-4.422c-0.493-2.135-1.965-3.025-3.24-3.282-0.736-0.148-1.394-0.113-1.843-0.058-0.035-1.013-0.383-3.138-2.565-4.557-2.398-1.559-4.707-0.912-5.516-0.607-0.25-0.376-0.725-1.010-1.482-1.612-0.856-0.681-2.072-1.299-3.62-1.371zM12.76 4.833c1.342 0.057 2.355 0.59 3.101 1.184 0.995 0.791 1.466 1.67 1.466 1.67l0.204 0.381 0.387-0.193c0 0 2.461-1.247 5.011 0.411 2.546 1.655 2.157 4.274 2.157 4.274l-0.087 0.649 0.635-0.159c0 0 0.965-0.234 2.012-0.023s2.127 0.781 2.55 2.611c0.422 1.825-0.32 2.841-1.196 3.519-0.823 0.637-1.723 0.876-1.832 0.904h-21.271c-0.068-0.011-1.19-0.195-2.269-0.888-1.113-0.714-2.131-1.875-1.908-4.069 0.225-2.209 1.366-3.222 2.483-3.762s2.178-0.544 2.178-0.544h0.411l0.032-0.409c0 0 0.094-1.164 0.709-2.434s1.704-2.598 3.774-3.003c0.523-0.102 1.007-0.136 1.454-0.117z"></path>
<path d="M7.328 23.226c0.238 0.064 0.378 0.306 0.314 0.544l-0.92 3.434c-0.064 0.238-0.306 0.378-0.544 0.314s-0.378-0.306-0.314-0.544l0.92-3.434c0.064-0.238 0.306-0.378 0.544-0.314z"></path>
<path d="M15.565 23.226c0.238 0.064 0.378 0.306 0.314 0.544l-0.92 3.434c-0.064 0.238-0.306 0.378-0.544 0.314s-0.378-0.306-0.314-0.544l0.92-3.434c0.064-0.238 0.306-0.378 0.544-0.314z"></path>
<path d="M23.802 22.989c0.238 0.064 0.378 0.306 0.314 0.544l-0.92 3.434c-0.064 0.238-0.306 0.378-0.544 0.314s-0.378-0.306-0.314-0.544l0.92-3.434c0.064-0.238 0.306-0.378 0.544-0.314z"></path>
</symbol>
<symbol id="icon-10d" viewBox="0 0 32 32">
<path d="M12.794 3.95c-0.516-0.024-1.070 0.013-1.659 0.128-2.378 0.466-3.71 2.057-4.403 3.488-0.477 0.985-0.665 1.886-0.741 2.372-0.464 0.044-1.289 0.173-2.176 0.603-1.315 0.636-2.725 1.976-2.98 4.472-0.256 2.512 1.015 4.074 2.312 4.907s2.645 1.024 2.645 1.024l0.032 0.005 21.503-0.011c0 0 1.162-0.263 2.216-1.078s2.013-2.282 1.519-4.422c-0.493-2.135-1.965-3.025-3.24-3.282-0.736-0.148-1.394-0.113-1.843-0.058-0.035-1.013-0.383-3.138-2.565-4.557-2.398-1.559-4.707-0.912-5.516-0.607-0.25-0.376-0.725-1.010-1.482-1.612-0.856-0.681-2.072-1.299-3.62-1.371zM12.76 4.833c1.342 0.057 2.355 0.59 3.101 1.184 0.995 0.791 1.466 1.67 1.466 1.67l0.204 0.381 0.387-0.193c0 0 2.461-1.247 5.011 0.411 2.546 1.655 2.157 4.274 2.157 4.274l-0.087 0.649 0.635-0.159c0 0 0.965-0.234 2.012-0.023s2.127 0.781 2.55 2.611c0.422 1.825-0.32 2.841-1.196 3.519-0.823 0.637-1.723 0.876-1.832 0.904h-21.271c-0.068-0.011-1.19-0.195-2.269-0.888-1.113-0.714-2.131-1.875-1.908-4.069 0.225-2.209 1.366-3.222 2.483-3.762s2.178-0.544 2.178-0.544h0.411l0.032-0.409c0 0 0.094-1.164 0.709-2.434s1.704-2.598 3.774-3.003c0.523-0.102 1.007-0.136 1.454-0.117z"></path>
<path d="M4.602 22.041c0.238 0.064 0.378 0.306 0.314 0.544l-0.92 3.434c-0.064 0.238-0.306 0.378-0.544 0.314s-0.378-0.306-0.314-0.544l0.92-3.434c0.064-0.238 0.306-0.378 0.544-0.314z"></path>
<path d="M12.839 22.041c0.238 0.064 0.378 0.306 0.314 0.544l-0.92 3.434c-0.064 0.238-0.306 0.378-0.544 0.314s-0.378-0.306-0.314-0.544l0.92-3.434c0.064-0.238 0.306-0.378 0.544-0.314z"></path>
<path d="M21.076 21.804c0.238 0.064 0.378 0.306 0.314 0.544l-0.92 3.434c-0.064 0.238-0.306 0.378-0.544 0.314s-0.378-0.306-0.314-0.544l0.92-3.434c0.064-0.238 0.306-0.378 0.544-0.314z"></path>
<path d="M8.513 24.53c0.238 0.064 0.378 0.306 0.314 0.544l-0.92 3.434c-0.064 0.238-0.306 0.378-0.544 0.314s-0.378-0.306-0.314-0.544l0.92-3.434c0.064-0.238 0.306-0.378 0.544-0.314z"></path>
<path d="M16.75 24.53c0.238 0.064 0.378 0.306 0.314 0.544l-0.92 3.434c-0.064 0.238-0.306 0.378-0.544 0.314s-0.378-0.306-0.314-0.544l0.92-3.434c0.064-0.238 0.306-0.378 0.544-0.314z"></path>
<path d="M24.987 24.293c0.238 0.064 0.378 0.306 0.314 0.544l-0.92 3.434c-0.064 0.238-0.306 0.378-0.544 0.314s-0.378-0.306-0.314-0.544l0.92-3.434c0.064-0.238 0.306-0.378 0.544-0.314z"></path>
</symbol>
<symbol id="icon-10n" viewBox="0 0 32 32">
<path d="M12.794 3.95c-0.516-0.024-1.070 0.013-1.659 0.128-2.378 0.466-3.71 2.057-4.403 3.488-0.477 0.985-0.665 1.886-0.741 2.372-0.464 0.044-1.289 0.173-2.176 0.603-1.315 0.636-2.725 1.976-2.98 4.472-0.256 2.512 1.015 4.074 2.312 4.907s2.645 1.024 2.645 1.024l0.032 0.005 21.503-0.011c0 0 1.162-0.263 2.216-1.078s2.013-2.282 1.519-4.422c-0.493-2.135-1.965-3.025-3.24-3.282-0.736-0.148-1.394-0.113-1.843-0.058-0.035-1.013-0.383-3.138-2.565-4.557-2.398-1.559-4.707-0.912-5.516-0.607-0.25-0.376-0.725-1.010-1.482-1.612-0.856-0.681-2.072-1.299-3.62-1.371zM12.76 4.833c1.342 0.057 2.355 0.59 3.101 1.184 0.995 0.791 1.466 1.67 1.466 1.67l0.204 0.381 0.387-0.193c0 0 2.461-1.247 5.011 0.411 2.546 1.655 2.157 4.274 2.157 4.274l-0.087 0.649 0.635-0.159c0 0 0.965-0.234 2.012-0.023s2.127 0.781 2.55 2.611c0.422 1.825-0.32 2.841-1.196 3.519-0.823 0.637-1.723 0.876-1.832 0.904h-21.271c-0.068-0.011-1.19-0.195-2.269-0.888-1.113-0.714-2.131-1.875-1.908-4.069 0.225-2.209 1.366-3.222 2.483-3.762s2.178-0.544 2.178-0.544h0.411l0.032-0.409c0 0 0.094-1.164 0.709-2.434s1.704-2.598 3.774-3.003c0.523-0.102 1.007-0.136 1.454-0.117z"></path>
<path d="M4.602 22.041c0.238 0.064 0.378 0.306 0.314 0.544l-0.92 3.434c-0.064 0.238-0.306 0.378-0.544 0.314s-0.378-0.306-0.314-0.544l0.92-3.434c0.064-0.238 0.306-0.378 0.544-0.314z"></path>
<path d="M12.839 22.041c0.238 0.064 0.378 0.306 0.314 0.544l-0.92 3.434c-0.064 0.238-0.306 0.378-0.544 0.314s-0.378-0.306-0.314-0.544l0.92-3.434c0.064-0.238 0.306-0.378 0.544-0.314z"></path>
<path d="M21.076 21.804c0.238 0.064 0.378 0.306 0.314 0.544l-0.92 3.434c-0.064 0.238-0.306 0.378-0.544 0.314s-0.378-0.306-0.314-0.544l0.92-3.434c0.064-0.238 0.306-0.378 0.544-0.314z"></path>
<path d="M8.513 24.53c0.238 0.064 0.378 0.306 0.314 0.544l-0.92 3.434c-0.064 0.238-0.306 0.378-0.544 0.314s-0.378-0.306-0.314-0.544l0.92-3.434c0.064-0.238 0.306-0.378 0.544-0.314z"></path>
<path d="M16.75 24.53c0.238 0.064 0.378 0.306 0.314 0.544l-0.92 3.434c-0.064 0.238-0.306 0.378-0.544 0.314s-0.378-0.306-0.314-0.544l0.92-3.434c0.064-0.238 0.306-0.378 0.544-0.314z"></path>
<path d="M24.987 24.293c0.238 0.064 0.378 0.306 0.314 0.544l-0.92 3.434c-0.064 0.238-0.306 0.378-0.544 0.314s-0.378-0.306-0.314-0.544l0.92-3.434c0.064-0.238 0.306-0.378 0.544-0.314z"></path>
</symbol>
<symbol id="icon-11d" viewBox="0 0 32 32">
<path d="M11.306 4.95c2.070-0.406 3.566 0.28 4.555 1.066 0.498 0.396 0.868 0.819 1.113 1.143 0.122 0.161 0.212 0.297 0.271 0.391 0.029 0.047 0.051 0.083 0.064 0.106 0.007 0.012 0.012 0.020 0.014 0.025l0.003 0.005v0l0 0 0 0 0.203 0.38 0.389-0.194c0.001-0.001 0.003-0.002 0.006-0.003s0.004-0.002 0.007-0.003l0.004-0.002c0.016-0.007 0.042-0.019 0.077-0.034 0.070-0.029 0.175-0.071 0.312-0.116 0.273-0.091 0.666-0.196 1.139-0.249 0.944-0.106 2.197-0.005 3.464 0.819 1.262 0.821 1.796 1.893 2.020 2.761 0.112 0.437 0.146 0.822 0.152 1.097 0.003 0.137-0.001 0.245-0.006 0.317-0.002 0.036-0.005 0.063-0.006 0.080-0 0.004-0.001 0.007-0.001 0.009l-0 0.004-0.001 0.004-0 0.001-0 0.001-0 0v0l-0.087 0.648 0.641-0.16c0.003-0.001 0.007-0.002 0.011-0.003s0.010-0.002 0.017-0.004c0.026-0.006 0.066-0.014 0.119-0.023 0.105-0.019 0.259-0.042 0.448-0.059 0.379-0.034 0.886-0.039 1.412 0.067 0.525 0.106 1.056 0.32 1.505 0.715 0.445 0.392 0.834 0.985 1.045 1.895 0.21 0.907 0.115 1.617-0.121 2.175-0.239 0.564-0.636 1.004-1.075 1.343s-0.911 0.571-1.277 0.717c-0.182 0.073-0.335 0.123-0.44 0.155-0.047 0.014-0.084 0.025-0.111 0.032h-6.55l-0.722 0.889h7.379l0.050-0.012-0.1-0.433c0.1 0.433 0.101 0.433 0.101 0.433l0.001-0 0.001-0 0.004-0.001c0.003-0.001 0.007-0.002 0.012-0.003 0.010-0.003 0.025-0.006 0.043-0.011 0.036-0.010 0.087-0.024 0.15-0.043 0.127-0.038 0.304-0.097 0.513-0.18 0.415-0.166 0.966-0.433 1.491-0.839s1.036-0.96 1.35-1.7c0.315-0.745 0.417-1.647 0.169-2.722-0.248-1.072-0.725-1.835-1.323-2.362-0.594-0.524-1.281-0.792-1.917-0.92-0.635-0.128-1.232-0.12-1.667-0.081-0.059 0.005-0.114 0.011-0.167 0.017-0.009-0.326-0.050-0.768-0.179-1.267-0.267-1.038-0.911-2.319-2.396-3.284-1.48-0.962-2.953-1.080-4.048-0.957-0.546 0.061-1.001 0.182-1.321 0.289-0.052 0.017-0.101 0.034-0.146 0.051-0.059-0.087-0.13-0.189-0.214-0.3-0.278-0.368-0.699-0.849-1.269-1.302-1.148-0.912-2.901-1.709-5.279-1.243-2.403 0.471-3.71 2.056-4.403 3.488-0.346 0.714-0.544 1.397-0.655 1.9-0.040 0.179-0.069 0.337-0.090 0.466-0.116 0.012-0.255 0.029-0.41 0.055-0.47 0.078-1.106 0.236-1.762 0.553-1.331 0.644-2.722 1.942-2.98 4.472-0.261 2.558 1.002 4.066 2.312 4.907 0.646 0.415 1.304 0.669 1.797 0.82 0.247 0.076 0.455 0.126 0.604 0.158 0.074 0.016 0.133 0.027 0.175 0.035 0.021 0.004 0.037 0.006 0.049 0.008 0.006 0.001 0.011 0.002 0.014 0.002l0.004 0.001 0.002 0 0.001 0c0 0 0 0 0.065-0.44l-0.064 0.44 0.032 0.005 4.419-0.002 0.745-0.887h-5.095c-0.004-0.001-0.009-0.002-0.015-0.003-0.032-0.006-0.081-0.015-0.144-0.029-0.127-0.027-0.31-0.071-0.53-0.139-0.441-0.135-1.018-0.36-1.577-0.718-1.1-0.706-2.127-1.921-1.908-4.068 0.222-2.175 1.382-3.23 2.483-3.762 0.56-0.271 1.109-0.408 1.521-0.476 0.205-0.034 0.374-0.051 0.489-0.059 0.058-0.004 0.102-0.006 0.131-0.007 0.014-0 0.025-0.001 0.031-0.001 0.003-0 0.005-0 0.006-0h0.41l0.032-0.409v-0.001l0-0.001c0-0.001 0-0.004 0.001-0.008 0.001-0.007 0.002-0.019 0.004-0.035 0.003-0.032 0.009-0.081 0.018-0.145 0.018-0.128 0.049-0.313 0.099-0.54 0.101-0.455 0.279-1.069 0.588-1.705 0.615-1.269 1.729-2.603 3.774-3.003zM14.912 20.059l-0.233 0.889 1.411-0.002 0.245-0.887h-1.424zM4.602 22.041c-0.237-0.064-0.481 0.077-0.544 0.314l-0.92 3.434c-0.064 0.237 0.077 0.481 0.314 0.544s0.481-0.077 0.544-0.314l0.92-3.434c0.064-0.237-0.077-0.481-0.314-0.544zM20.532 22.118c0.064-0.237 0.307-0.378 0.544-0.314s0.378 0.307 0.314 0.544l-0.92 3.434c-0.064 0.237-0.307 0.378-0.544 0.314s-0.378-0.307-0.314-0.544l0.92-3.434zM8.513 24.53c-0.237-0.064-0.481 0.077-0.544 0.314l-0.92 3.434c-0.064 0.237 0.077 0.481 0.314 0.544s0.481-0.077 0.544-0.314l0.92-3.434c0.064-0.237-0.077-0.481-0.314-0.544zM24.443 24.607c0.064-0.237 0.307-0.378 0.544-0.314s0.378 0.307 0.314 0.544l-0.92 3.434c-0.064 0.237-0.307 0.378-0.544 0.314s-0.378-0.307-0.314-0.544l0.92-3.434z"></path>
<path d="M12.207 20.48l6.301-7.502-2.076 7.502h2.294l-6.132 7.55 1.98-7.55h-2.366z"></path>
</symbol>
<symbol id="icon-11n" viewBox="0 0 32 32">
<path d="M11.306 4.95c2.070-0.406 3.566 0.28 4.555 1.066 0.498 0.396 0.868 0.819 1.113 1.143 0.122 0.161 0.212 0.297 0.271 0.391 0.029 0.047 0.051 0.083 0.064 0.106 0.007 0.012 0.012 0.020 0.014 0.025l0.003 0.005v0l0 0 0 0 0.203 0.38 0.389-0.194c0.001-0.001 0.003-0.002 0.006-0.003s0.004-0.002 0.007-0.003l0.004-0.002c0.016-0.007 0.042-0.019 0.077-0.034 0.070-0.029 0.175-0.071 0.312-0.116 0.273-0.091 0.666-0.196 1.139-0.249 0.944-0.106 2.197-0.005 3.464 0.819 1.262 0.821 1.796 1.893 2.020 2.761 0.112 0.437 0.146 0.822 0.152 1.097 0.003 0.137-0.001 0.245-0.006 0.317-0.002 0.036-0.005 0.063-0.006 0.080-0 0.004-0.001 0.007-0.001 0.009l-0 0.004-0.001 0.004-0 0.001-0 0.001-0 0v0l-0.087 0.648 0.641-0.16c0.003-0.001 0.007-0.002 0.011-0.003s0.010-0.002 0.017-0.004c0.026-0.006 0.066-0.014 0.119-0.023 0.105-0.019 0.259-0.042 0.448-0.059 0.379-0.034 0.886-0.039 1.412 0.067 0.525 0.106 1.056 0.32 1.505 0.715 0.445 0.392 0.834 0.985 1.045 1.895 0.21 0.907 0.115 1.617-0.121 2.175-0.239 0.564-0.636 1.004-1.075 1.343s-0.911 0.571-1.277 0.717c-0.182 0.073-0.335 0.123-0.44 0.155-0.047 0.014-0.084 0.025-0.111 0.032h-6.55l-0.722 0.889h7.379l0.050-0.012-0.1-0.433c0.1 0.433 0.101 0.433 0.101 0.433l0.001-0 0.001-0 0.004-0.001c0.003-0.001 0.007-0.002 0.012-0.003 0.010-0.003 0.025-0.006 0.043-0.011 0.036-0.010 0.087-0.024 0.15-0.043 0.127-0.038 0.304-0.097 0.513-0.18 0.415-0.166 0.966-0.433 1.491-0.839s1.036-0.96 1.35-1.7c0.315-0.745 0.417-1.647 0.169-2.722-0.248-1.072-0.725-1.835-1.323-2.362-0.594-0.524-1.281-0.792-1.917-0.92-0.635-0.128-1.232-0.12-1.667-0.081-0.059 0.005-0.114 0.011-0.167 0.017-0.009-0.326-0.050-0.768-0.179-1.267-0.267-1.038-0.911-2.319-2.396-3.284-1.48-0.962-2.953-1.080-4.048-0.957-0.546 0.061-1.001 0.182-1.321 0.289-0.052 0.017-0.101 0.034-0.146 0.051-0.059-0.087-0.13-0.189-0.214-0.3-0.278-0.368-0.699-0.849-1.269-1.302-1.148-0.912-2.901-1.709-5.279-1.243-2.403 0.471-3.71 2.056-4.403 3.488-0.346 0.714-0.544 1.397-0.655 1.9-0.040 0.179-0.069 0.337-0.090 0.466-0.116 0.012-0.255 0.029-0.41 0.055-0.47 0.078-1.106 0.236-1.762 0.553-1.331 0.644-2.722 1.942-2.98 4.472-0.261 2.558 1.002 4.066 2.312 4.907 0.646 0.415 1.304 0.669 1.797 0.82 0.247 0.076 0.455 0.126 0.604 0.158 0.074 0.016 0.133 0.027 0.175 0.035 0.021 0.004 0.037 0.006 0.049 0.008 0.006 0.001 0.011 0.002 0.014 0.002l0.004 0.001 0.002 0 0.001 0c0 0 0 0 0.065-0.44l-0.064 0.44 0.032 0.005 4.419-0.002 0.745-0.887h-5.095c-0.004-0.001-0.009-0.002-0.015-0.003-0.032-0.006-0.081-0.015-0.144-0.029-0.127-0.027-0.31-0.071-0.53-0.139-0.441-0.135-1.018-0.36-1.577-0.718-1.1-0.706-2.127-1.921-1.908-4.068 0.222-2.175 1.382-3.23 2.483-3.762 0.56-0.271 1.109-0.408 1.521-0.476 0.205-0.034 0.374-0.051 0.489-0.059 0.058-0.004 0.102-0.006 0.131-0.007 0.014-0 0.025-0.001 0.031-0.001 0.003-0 0.005-0 0.006-0h0.41l0.032-0.409v-0.001l0-0.001c0-0.001 0-0.004 0.001-0.008 0.001-0.007 0.002-0.019 0.004-0.035 0.003-0.032 0.009-0.081 0.018-0.145 0.018-0.128 0.049-0.313 0.099-0.54 0.101-0.455 0.279-1.069 0.588-1.705 0.615-1.269 1.729-2.603 3.774-3.003zM14.912 20.059l-0.233 0.889 1.411-0.002 0.245-0.887h-1.424zM4.602 22.041c-0.237-0.064-0.481 0.077-0.544 0.314l-0.92 3.434c-0.064 0.237 0.077 0.481 0.314 0.544s0.481-0.077 0.544-0.314l0.92-3.434c0.064-0.237-0.077-0.481-0.314-0.544zM20.532 22.118c0.064-0.237 0.307-0.378 0.544-0.314s0.378 0.307 0.314 0.544l-0.92 3.434c-0.064 0.237-0.307 0.378-0.544 0.314s-0.378-0.307-0.314-0.544l0.92-3.434zM8.513 24.53c-0.237-0.064-0.481 0.077-0.544 0.314l-0.92 3.434c-0.064 0.237 0.077 0.481 0.314 0.544s0.481-0.077 0.544-0.314l0.92-3.434c0.064-0.237-0.077-0.481-0.314-0.544zM24.443 24.607c0.064-0.237 0.307-0.378 0.544-0.314s0.378 0.307 0.314 0.544l-0.92 3.434c-0.064 0.237-0.307 0.378-0.544 0.314s-0.378-0.307-0.314-0.544l0.92-3.434z"></path>
<path d="M12.207 20.48l6.301-7.502-2.076 7.502h2.294l-6.132 7.55 1.98-7.55h-2.366z"></path>
</symbol>
<symbol id="icon-13d" viewBox="0 0 32 32">
<path d="M11.306 4.95c2.070-0.406 3.566 0.28 4.555 1.066 0.498 0.396 0.868 0.819 1.113 1.143 0.122 0.161 0.212 0.297 0.271 0.391 0.029 0.047 0.051 0.083 0.064 0.106 0.003 0.006 0.006 0.011 0.009 0.015s0.004 0.008 0.006 0.010l0.003 0.005v0l0 0 0 0 0.203 0.38 0.389-0.194c0.003-0.002 0.009-0.004 0.017-0.008 0.016-0.007 0.042-0.019 0.077-0.034 0.070-0.029 0.175-0.071 0.312-0.116 0.273-0.091 0.666-0.196 1.139-0.249 0.944-0.106 2.197-0.005 3.464 0.819 1.262 0.821 1.796 1.893 2.020 2.761 0.112 0.437 0.146 0.822 0.152 1.097 0.003 0.137-0.001 0.245-0.006 0.317-0.002 0.036-0.005 0.063-0.006 0.080-0 0.002-0 0.004-0.001 0.005s-0 0.003-0 0.004-0.001 0.006-0.001 0.008l-0 0.001-0 0.001-0 0v0l-0.087 0.648 0.635-0.159c0.001-0 0.003-0.001 0.006-0.001s0.007-0.002 0.011-0.003c0.005-0.001 0.010-0.002 0.017-0.004 0.026-0.006 0.066-0.014 0.119-0.023 0.105-0.019 0.259-0.042 0.448-0.059 0.379-0.034 0.886-0.039 1.412 0.067 0.525 0.106 1.056 0.32 1.505 0.715 0.445 0.392 0.834 0.985 1.045 1.895 0.21 0.907 0.115 1.617-0.121 2.175-0.239 0.564-0.636 1.004-1.075 1.343s-0.911 0.571-1.277 0.717c-0.182 0.073-0.335 0.123-0.44 0.155-0.047 0.014-0.084 0.025-0.111 0.032h-4.237v0.889h4.344l0.050-0.012-0.1-0.433c0.1 0.433 0.101 0.433 0.101 0.433l0.001-0 0.001-0 0.004-0.001c0.003-0.001 0.007-0.002 0.012-0.003 0.010-0.003 0.025-0.006 0.043-0.011 0.036-0.010 0.087-0.024 0.15-0.043 0.127-0.038 0.304-0.097 0.513-0.18 0.415-0.166 0.966-0.433 1.491-0.839s1.036-0.96 1.35-1.7c0.315-0.745 0.417-1.647 0.169-2.722-0.248-1.072-0.725-1.835-1.323-2.362-0.594-0.524-1.281-0.792-1.917-0.92-0.635-0.128-1.232-0.12-1.667-0.081-0.059 0.005-0.114 0.011-0.167 0.017-0.009-0.326-0.050-0.768-0.179-1.267-0.267-1.038-0.911-2.319-2.396-3.284-1.48-0.962-2.953-1.080-4.048-0.957-0.546 0.061-1.001 0.182-1.321 0.289-0.052 0.017-0.101 0.034-0.146 0.051-0.059-0.087-0.13-0.189-0.214-0.3-0.278-0.368-0.699-0.849-1.269-1.302-1.148-0.912-2.901-1.709-5.279-1.243-2.403 0.471-3.71 2.056-4.403 3.488-0.346 0.714-0.544 1.397-0.655 1.9-0.040 0.179-0.069 0.337-0.090 0.466-0.116 0.012-0.255 0.029-0.41 0.055-0.47 0.078-1.106 0.236-1.762 0.553-1.331 0.644-2.722 1.942-2.98 4.472-0.261 2.558 1.002 4.066 2.312 4.907 0.646 0.415 1.304 0.669 1.797 0.82 0.247 0.076 0.455 0.126 0.604 0.158 0.074 0.016 0.133 0.027 0.175 0.035 0.021 0.004 0.037 0.006 0.049 0.008 0.006 0.001 0.011 0.002 0.014 0.002l0.004 0.001 0.002 0 0.001 0c0 0 0 0 0.065-0.44l-0.064 0.44 0.032 0.005h3.184v-0.889h-3.116c-0.004-0.001-0.009-0.002-0.015-0.003-0.032-0.006-0.081-0.015-0.144-0.029-0.127-0.027-0.31-0.071-0.53-0.139-0.441-0.135-1.018-0.36-1.577-0.718-1.1-0.706-2.127-1.921-1.908-4.069 0.222-2.175 1.382-3.23 2.483-3.762 0.56-0.271 1.109-0.408 1.521-0.476 0.205-0.034 0.374-0.051 0.489-0.059 0.058-0.004 0.102-0.006 0.131-0.007 0.014-0 0.025-0.001 0.031-0.001 0.003-0 0.005-0 0.006-0h0.41l0.032-0.409v-0.001l0-0.001c0-0.001 0-0.004 0.001-0.008 0.001-0.007 0.002-0.019 0.004-0.035 0.003-0.032 0.009-0.081 0.018-0.145 0.018-0.128 0.049-0.313 0.099-0.54 0.101-0.455 0.279-1.069 0.588-1.705 0.615-1.269 1.729-2.603 3.774-3.003z"></path>
<path d="M21.144 20.030c0.123 0.213 0.050 0.484-0.163 0.607l-9.494 5.481c-0.213 0.123-0.484 0.050-0.607-0.163s-0.050-0.484 0.163-0.607l9.494-5.481c0.213-0.123 0.484-0.050 0.607 0.163z"></path>
<path d="M19.41 18.769c0.222 0.104 0.319 0.368 0.215 0.591l-1.127 2.417c-0.104 0.222-0.368 0.319-0.591 0.215s-0.319-0.368-0.215-0.591l1.127-2.417c0.104-0.222 0.368-0.319 0.591-0.215z"></path>
<path d="M21.369 22.162c-0.021 0.245-0.237 0.425-0.482 0.404l-2.657-0.232c-0.245-0.021-0.425-0.237-0.404-0.482s0.237-0.425 0.482-0.404l2.657 0.232c0.245 0.021 0.425 0.237 0.404 0.482z"></path>
<path d="M12.614 27.217c-0.222-0.104-0.319-0.368-0.215-0.591l1.127-2.417c0.104-0.222 0.368-0.319 0.591-0.215s0.319 0.368 0.215 0.591l-1.127 2.417c-0.104 0.222-0.368 0.319-0.591 0.215z"></path>
<path d="M10.655 23.823c0.021-0.245 0.237-0.425 0.482-0.404l2.657 0.232c0.245 0.021 0.425 0.237 0.404 0.482s-0.237 0.425-0.482 0.404l-2.657-0.232c-0.245-0.021-0.425-0.237-0.404-0.482z"></path>
<path d="M21.144 25.956c-0.123 0.213-0.395 0.285-0.607 0.163l-9.494-5.481c-0.213-0.123-0.285-0.395-0.163-0.607s0.395-0.285 0.607-0.163l9.494 5.481c0.213 0.123 0.285 0.395 0.163 0.607z"></path>
<path d="M21.369 23.823c0.021 0.245-0.16 0.46-0.404 0.482l-2.657 0.232c-0.245 0.021-0.46-0.16-0.482-0.404s0.16-0.46 0.404-0.482l2.657-0.232c0.245-0.021 0.46 0.16 0.482 0.404z"></path>
<path d="M19.41 27.217c-0.222 0.104-0.487 0.008-0.591-0.215l-1.127-2.417c-0.104-0.222-0.008-0.487 0.215-0.591s0.487-0.008 0.591 0.215l1.127 2.417c0.104 0.222 0.008 0.487-0.215 0.591z"></path>
<path d="M10.655 22.162c-0.021-0.245 0.159-0.46 0.404-0.482l2.657-0.232c0.245-0.021 0.46 0.16 0.482 0.404s-0.159 0.46-0.404 0.482l-2.657 0.232c-0.245 0.021-0.46-0.16-0.482-0.404z"></path>
<path d="M12.614 18.769c0.222-0.104 0.487-0.008 0.591 0.215l1.127 2.417c0.104 0.222 0.008 0.487-0.215 0.591s-0.487 0.008-0.591-0.215l-1.127-2.417c-0.104-0.222-0.008-0.487 0.215-0.591z"></path>
<path d="M16.012 17.067c0.245 0 0.444 0.199 0.444 0.444v10.963c0 0.245-0.199 0.444-0.444 0.444s-0.444-0.199-0.444-0.444v-10.963c0-0.245 0.199-0.444 0.444-0.444z"></path>
<path d="M14.053 17.938c0.201-0.141 0.478-0.092 0.619 0.109l1.53 2.184c0.141 0.201 0.092 0.478-0.109 0.619s-0.478 0.092-0.619-0.109l-1.53-2.184c-0.141-0.201-0.092-0.478 0.109-0.619z"></path>
<path d="M17.971 17.938c0.201 0.141 0.25 0.418 0.109 0.619l-1.53 2.184c-0.141 0.201-0.418 0.25-0.619 0.109s-0.25-0.418-0.109-0.619l1.53-2.184c0.141-0.201 0.418-0.25 0.619-0.109z"></path>
<path d="M17.971 28.047c-0.201 0.141-0.478 0.092-0.619-0.109l-1.53-2.184c-0.141-0.201-0.092-0.478 0.109-0.619s0.478-0.092 0.619 0.109l1.53 2.184c0.141 0.201 0.092 0.478-0.109 0.619z"></path>
<path d="M14.053 28.048c-0.201-0.141-0.25-0.418-0.109-0.619l1.53-2.184c0.141-0.201 0.418-0.25 0.619-0.109s0.25 0.418 0.109 0.619l-1.53 2.184c-0.141 0.201-0.418 0.25-0.619 0.109z"></path>
</symbol>
<symbol id="icon-13n" viewBox="0 0 32 32">
<path d="M11.306 4.95c2.070-0.406 3.566 0.28 4.555 1.066 0.498 0.396 0.868 0.819 1.113 1.143 0.122 0.161 0.212 0.297 0.271 0.391 0.029 0.047 0.051 0.083 0.064 0.106 0.003 0.006 0.006 0.011 0.009 0.015s0.004 0.008 0.006 0.010l0.003 0.005v0l0 0 0 0 0.203 0.38 0.389-0.194c0.003-0.002 0.009-0.004 0.017-0.008 0.016-0.007 0.042-0.019 0.077-0.034 0.070-0.029 0.175-0.071 0.312-0.116 0.273-0.091 0.666-0.196 1.139-0.249 0.944-0.106 2.197-0.005 3.464 0.819 1.262 0.821 1.796 1.893 2.020 2.761 0.112 0.437 0.146 0.822 0.152 1.097 0.003 0.137-0.001 0.245-0.006 0.317-0.002 0.036-0.005 0.063-0.006 0.080-0 0.002-0 0.004-0.001 0.005s-0 0.003-0 0.004-0.001 0.006-0.001 0.008l-0 0.001-0 0.001-0 0v0l-0.087 0.648 0.635-0.159c0.001-0 0.003-0.001 0.006-0.001s0.007-0.002 0.011-0.003c0.005-0.001 0.010-0.002 0.017-0.004 0.026-0.006 0.066-0.014 0.119-0.023 0.105-0.019 0.259-0.042 0.448-0.059 0.379-0.034 0.886-0.039 1.412 0.067 0.525 0.106 1.056 0.32 1.505 0.715 0.445 0.392 0.834 0.985 1.045 1.895 0.21 0.907 0.115 1.617-0.121 2.175-0.239 0.564-0.636 1.004-1.075 1.343s-0.911 0.571-1.277 0.717c-0.182 0.073-0.335 0.123-0.44 0.155-0.047 0.014-0.084 0.025-0.111 0.032h-4.237v0.889h4.344l0.050-0.012-0.1-0.433c0.1 0.433 0.101 0.433 0.101 0.433l0.001-0 0.001-0 0.004-0.001c0.003-0.001 0.007-0.002 0.012-0.003 0.010-0.003 0.025-0.006 0.043-0.011 0.036-0.010 0.087-0.024 0.15-0.043 0.127-0.038 0.304-0.097 0.513-0.18 0.415-0.166 0.966-0.433 1.491-0.839s1.036-0.96 1.35-1.7c0.315-0.745 0.417-1.647 0.169-2.722-0.248-1.072-0.725-1.835-1.323-2.362-0.594-0.524-1.281-0.792-1.917-0.92-0.635-0.128-1.232-0.12-1.667-0.081-0.059 0.005-0.114 0.011-0.167 0.017-0.009-0.326-0.050-0.768-0.179-1.267-0.267-1.038-0.911-2.319-2.396-3.284-1.48-0.962-2.953-1.080-4.048-0.957-0.546 0.061-1.001 0.182-1.321 0.289-0.052 0.017-0.101 0.034-0.146 0.051-0.059-0.087-0.13-0.189-0.214-0.3-0.278-0.368-0.699-0.849-1.269-1.302-1.148-0.912-2.901-1.709-5.279-1.243-2.403 0.471-3.71 2.056-4.403 3.488-0.346 0.714-0.544 1.397-0.655 1.9-0.040 0.179-0.069 0.337-0.090 0.466-0.116 0.012-0.255 0.029-0.41 0.055-0.47 0.078-1.106 0.236-1.762 0.553-1.331 0.644-2.722 1.942-2.98 4.472-0.261 2.558 1.002 4.066 2.312 4.907 0.646 0.415 1.304 0.669 1.797 0.82 0.247 0.076 0.455 0.126 0.604 0.158 0.074 0.016 0.133 0.027 0.175 0.035 0.021 0.004 0.037 0.006 0.049 0.008 0.006 0.001 0.011 0.002 0.014 0.002l0.004 0.001 0.002 0 0.001 0c0 0 0 0 0.065-0.44l-0.064 0.44 0.032 0.005h3.184v-0.889h-3.116c-0.004-0.001-0.009-0.002-0.015-0.003-0.032-0.006-0.081-0.015-0.144-0.029-0.127-0.027-0.31-0.071-0.53-0.139-0.441-0.135-1.018-0.36-1.577-0.718-1.1-0.706-2.127-1.921-1.908-4.069 0.222-2.175 1.382-3.23 2.483-3.762 0.56-0.271 1.109-0.408 1.521-0.476 0.205-0.034 0.374-0.051 0.489-0.059 0.058-0.004 0.102-0.006 0.131-0.007 0.014-0 0.025-0.001 0.031-0.001 0.003-0 0.005-0 0.006-0h0.41l0.032-0.409v-0.001l0-0.001c0-0.001 0-0.004 0.001-0.008 0.001-0.007 0.002-0.019 0.004-0.035 0.003-0.032 0.009-0.081 0.018-0.145 0.018-0.128 0.049-0.313 0.099-0.54 0.101-0.455 0.279-1.069 0.588-1.705 0.615-1.269 1.729-2.603 3.774-3.003z"></path>
<path d="M21.144 20.030c0.123 0.213 0.050 0.484-0.163 0.607l-9.494 5.481c-0.213 0.123-0.484 0.050-0.607-0.163s-0.050-0.484 0.163-0.607l9.494-5.481c0.213-0.123 0.484-0.050 0.607 0.163z"></path>
<path d="M19.41 18.769c0.222 0.104 0.319 0.368 0.215 0.591l-1.127 2.417c-0.104 0.222-0.368 0.319-0.591 0.215s-0.319-0.368-0.215-0.591l1.127-2.417c0.104-0.222 0.368-0.319 0.591-0.215z"></path>
<path d="M21.369 22.162c-0.021 0.245-0.237 0.425-0.482 0.404l-2.657-0.232c-0.245-0.021-0.425-0.237-0.404-0.482s0.237-0.425 0.482-0.404l2.657 0.232c0.245 0.021 0.425 0.237 0.404 0.482z"></path>
<path d="M12.614 27.217c-0.222-0.104-0.319-0.368-0.215-0.591l1.127-2.417c0.104-0.222 0.368-0.319 0.591-0.215s0.319 0.368 0.215 0.591l-1.127 2.417c-0.104 0.222-0.368 0.319-0.591 0.215z"></path>
<path d="M10.655 23.823c0.021-0.245 0.237-0.425 0.482-0.404l2.657 0.232c0.245 0.021 0.425 0.237 0.404 0.482s-0.237 0.425-0.482 0.404l-2.657-0.232c-0.245-0.021-0.425-0.237-0.404-0.482z"></path>
<path d="M21.144 25.956c-0.123 0.213-0.395 0.285-0.607 0.163l-9.494-5.481c-0.213-0.123-0.285-0.395-0.163-0.607s0.395-0.285 0.607-0.163l9.494 5.481c0.213 0.123 0.285 0.395 0.163 0.607z"></path>
<path d="M21.369 23.823c0.021 0.245-0.16 0.46-0.404 0.482l-2.657 0.232c-0.245 0.021-0.46-0.16-0.482-0.404s0.16-0.46 0.404-0.482l2.657-0.232c0.245-0.021 0.46 0.16 0.482 0.404z"></path>
<path d="M19.41 27.217c-0.222 0.104-0.487 0.008-0.591-0.215l-1.127-2.417c-0.104-0.222-0.008-0.487 0.215-0.591s0.487-0.008 0.591 0.215l1.127 2.417c0.104 0.222 0.008 0.487-0.215 0.591z"></path>
<path d="M10.655 22.162c-0.021-0.245 0.159-0.46 0.404-0.482l2.657-0.232c0.245-0.021 0.46 0.16 0.482 0.404s-0.159 0.46-0.404 0.482l-2.657 0.232c-0.245 0.021-0.46-0.16-0.482-0.404z"></path>
<path d="M12.614 18.769c0.222-0.104 0.487-0.008 0.591 0.215l1.127 2.417c0.104 0.222 0.008 0.487-0.215 0.591s-0.487 0.008-0.591-0.215l-1.127-2.417c-0.104-0.222-0.008-0.487 0.215-0.591z"></path>
<path d="M16.012 17.067c0.245 0 0.444 0.199 0.444 0.444v10.963c0 0.245-0.199 0.444-0.444 0.444s-0.444-0.199-0.444-0.444v-10.963c0-0.245 0.199-0.444 0.444-0.444z"></path>
<path d="M14.053 17.938c0.201-0.141 0.478-0.092 0.619 0.109l1.53 2.184c0.141 0.201 0.092 0.478-0.109 0.619s-0.478 0.092-0.619-0.109l-1.53-2.184c-0.141-0.201-0.092-0.478 0.109-0.619z"></path>
<path d="M17.971 17.938c0.201 0.141 0.25 0.418 0.109 0.619l-1.53 2.184c-0.141 0.201-0.418 0.25-0.619 0.109s-0.25-0.418-0.109-0.619l1.53-2.184c0.141-0.201 0.418-0.25 0.619-0.109z"></path>
<path d="M17.971 28.047c-0.201 0.141-0.478 0.092-0.619-0.109l-1.53-2.184c-0.141-0.201-0.092-0.478 0.109-0.619s0.478-0.092 0.619 0.109l1.53 2.184c0.141 0.201 0.092 0.478-0.109 0.619z"></path>
<path d="M14.053 28.048c-0.201-0.141-0.25-0.418-0.109-0.619l1.53-2.184c0.141-0.201 0.418-0.25 0.619-0.109s0.25 0.418 0.109 0.619l-1.53 2.184c-0.141 0.201-0.418 0.25-0.619 0.109z"></path>
</symbol>
<symbol id="icon-50d" viewBox="0 0 32 32">
<path d="M11.306 4.95c2.070-0.406 3.566 0.28 4.555 1.066 0.498 0.396 0.868 0.819 1.113 1.143 0.122 0.161 0.212 0.297 0.271 0.391 0.029 0.047 0.051 0.083 0.064 0.106 0.003 0.006 0.006 0.011 0.009 0.015s0.004 0.008 0.006 0.010l0.003 0.005v0l0 0 0 0 0.203 0.38 0.389-0.194c0.003-0.002 0.009-0.004 0.017-0.008 0.016-0.007 0.042-0.019 0.077-0.034 0.070-0.029 0.175-0.071 0.312-0.116 0.273-0.091 0.666-0.196 1.139-0.249 0.944-0.106 2.197-0.005 3.464 0.819 1.262 0.821 1.796 1.893 2.020 2.761 0.112 0.437 0.146 0.822 0.152 1.097 0.003 0.137-0.001 0.245-0.006 0.317-0.002 0.036-0.005 0.063-0.006 0.080-0 0.002-0 0.004-0.001 0.005s-0 0.003-0 0.004-0.001 0.006-0.001 0.008l-0 0.001-0 0.001-0 0v0l-0.087 0.648 0.635-0.159c0.001-0 0.003-0.001 0.006-0.001s0.007-0.002 0.011-0.003c0.005-0.001 0.010-0.002 0.017-0.004 0.026-0.006 0.066-0.014 0.119-0.023 0.105-0.019 0.259-0.042 0.448-0.059 0.379-0.034 0.886-0.039 1.412 0.067 0.525 0.106 1.056 0.32 1.505 0.715 0.445 0.392 0.834 0.985 1.045 1.895 0.21 0.907 0.115 1.617-0.121 2.175-0.239 0.564-0.636 1.004-1.075 1.343s-0.911 0.571-1.277 0.717c-0.182 0.073-0.335 0.123-0.44 0.155-0.047 0.014-0.084 0.025-0.111 0.032h-2.578v0.889h2.685l0.050-0.012-0.1-0.433c0.1 0.433 0.101 0.433 0.101 0.433l0.001-0 0.001-0 0.004-0.001c0.003-0.001 0.007-0.002 0.012-0.003 0.010-0.003 0.025-0.006 0.043-0.011 0.036-0.010 0.087-0.024 0.15-0.043 0.127-0.038 0.304-0.097 0.513-0.18 0.415-0.166 0.966-0.433 1.491-0.839s1.036-0.96 1.35-1.7c0.315-0.745 0.417-1.647 0.169-2.722-0.248-1.072-0.725-1.835-1.323-2.362-0.594-0.524-1.281-0.792-1.917-0.92-0.635-0.128-1.232-0.12-1.667-0.081-0.059 0.005-0.114 0.011-0.167 0.017-0.009-0.326-0.050-0.768-0.179-1.267-0.267-1.038-0.911-2.319-2.396-3.284-1.48-0.962-2.953-1.080-4.048-0.957-0.546 0.061-1.001 0.182-1.321 0.289-0.052 0.017-0.101 0.034-0.146 0.051-0.059-0.087-0.13-0.189-0.214-0.3-0.278-0.368-0.699-0.849-1.269-1.302-1.148-0.912-2.901-1.709-5.279-1.243-2.403 0.471-3.71 2.056-4.403 3.488-0.346 0.714-0.544 1.397-0.655 1.9-0.040 0.179-0.069 0.337-0.090 0.466-0.116 0.012-0.255 0.029-0.41 0.055-0.47 0.078-1.106 0.236-1.762 0.553-1.331 0.644-2.722 1.942-2.98 4.472-0.261 2.558 1.002 4.066 2.312 4.907 0.646 0.415 1.304 0.669 1.797 0.82 0.247 0.076 0.455 0.126 0.604 0.158 0.074 0.016 0.133 0.027 0.175 0.035 0.021 0.004 0.037 0.006 0.049 0.008 0.006 0.001 0.011 0.002 0.014 0.002l0.004 0.001 0.002 0 0.001 0c0 0 0 0 0.065-0.44l-0.064 0.44 0.032 0.005h1.584v-0.889h-1.516c-0.004-0.001-0.009-0.002-0.015-0.003-0.032-0.006-0.081-0.015-0.144-0.029-0.127-0.027-0.31-0.071-0.53-0.139-0.441-0.135-1.018-0.36-1.577-0.718-1.1-0.706-2.127-1.921-1.908-4.069 0.222-2.175 1.382-3.23 2.483-3.762 0.56-0.271 1.109-0.408 1.521-0.476 0.205-0.034 0.374-0.051 0.489-0.059 0.058-0.004 0.102-0.006 0.131-0.007 0.014-0 0.025-0.001 0.031-0.001 0.003-0 0.005-0 0.006-0h0.41l0.032-0.409v-0.001l0-0.001c0-0.001 0-0.004 0.001-0.008 0.001-0.007 0.002-0.019 0.004-0.035 0.003-0.032 0.009-0.081 0.018-0.145 0.018-0.128 0.049-0.313 0.099-0.54 0.101-0.455 0.279-1.069 0.588-1.705 0.615-1.269 1.729-2.603 3.774-3.003z"></path>
<path d="M10.519 18.844h10.963c0.245 0 0.444 0.199 0.444 0.444s-0.199 0.444-0.444 0.444h-10.963c-0.245 0-0.444-0.199-0.444-0.444s0.199-0.444 0.444-0.444z"></path>
<path d="M10.815 25.956h10.963c0.245 0 0.444 0.199 0.444 0.444s-0.199 0.444-0.444 0.444h-10.963c-0.245 0-0.444-0.199-0.444-0.444s0.199-0.444 0.444-0.444z"></path>
<path d="M8.385 21.215h9.778c0.245 0 0.444 0.199 0.444 0.444s-0.199 0.444-0.444 0.444h-9.778c-0.245 0-0.444-0.199-0.444-0.444s0.199-0.444 0.444-0.444z"></path>
<path d="M20.593 21.215h2.667c0.245 0 0.444 0.199 0.444 0.444s-0.199 0.444-0.444 0.444h-2.667c-0.245 0-0.444-0.199-0.444-0.444s0.199-0.444 0.444-0.444z"></path>
<path d="M23.437 24.474h-9.778c-0.245 0-0.444-0.199-0.444-0.444s0.199-0.444 0.444-0.444h9.778c0.245 0 0.444 0.199 0.444 0.444s-0.199 0.444-0.444 0.444z"></path>
<path d="M11.23 24.474h-2.667c-0.245 0-0.444-0.199-0.444-0.444s0.199-0.444 0.444-0.444h2.667c0.245 0 0.444 0.199 0.444 0.444s-0.199 0.444-0.444 0.444z"></path>
</symbol>
<symbol id="icon-50n" viewBox="0 0 32 32">
<path d="M11.306 4.95c2.070-0.406 3.566 0.28 4.555 1.066 0.498 0.396 0.868 0.819 1.113 1.143 0.122 0.161 0.212 0.297 0.271 0.391 0.029 0.047 0.051 0.083 0.064 0.106 0.003 0.006 0.006 0.011 0.009 0.015s0.004 0.008 0.006 0.010l0.003 0.005v0l0 0 0 0 0.203 0.38 0.389-0.194c0.003-0.002 0.009-0.004 0.017-0.008 0.016-0.007 0.042-0.019 0.077-0.034 0.070-0.029 0.175-0.071 0.312-0.116 0.273-0.091 0.666-0.196 1.139-0.249 0.944-0.106 2.197-0.005 3.464 0.819 1.262 0.821 1.796 1.893 2.020 2.761 0.112 0.437 0.146 0.822 0.152 1.097 0.003 0.137-0.001 0.245-0.006 0.317-0.002 0.036-0.005 0.063-0.006 0.080-0 0.002-0 0.004-0.001 0.005s-0 0.003-0 0.004-0.001 0.006-0.001 0.008l-0 0.001-0 0.001-0 0v0l-0.087 0.648 0.635-0.159c0.001-0 0.003-0.001 0.006-0.001s0.007-0.002 0.011-0.003c0.005-0.001 0.010-0.002 0.017-0.004 0.026-0.006 0.066-0.014 0.119-0.023 0.105-0.019 0.259-0.042 0.448-0.059 0.379-0.034 0.886-0.039 1.412 0.067 0.525 0.106 1.056 0.32 1.505 0.715 0.445 0.392 0.834 0.985 1.045 1.895 0.21 0.907 0.115 1.617-0.121 2.175-0.239 0.564-0.636 1.004-1.075 1.343s-0.911 0.571-1.277 0.717c-0.182 0.073-0.335 0.123-0.44 0.155-0.047 0.014-0.084 0.025-0.111 0.032h-2.578v0.889h2.685l0.050-0.012-0.1-0.433c0.1 0.433 0.101 0.433 0.101 0.433l0.001-0 0.001-0 0.004-0.001c0.003-0.001 0.007-0.002 0.012-0.003 0.010-0.003 0.025-0.006 0.043-0.011 0.036-0.010 0.087-0.024 0.15-0.043 0.127-0.038 0.304-0.097 0.513-0.18 0.415-0.166 0.966-0.433 1.491-0.839s1.036-0.96 1.35-1.7c0.315-0.745 0.417-1.647 0.169-2.722-0.248-1.072-0.725-1.835-1.323-2.362-0.594-0.524-1.281-0.792-1.917-0.92-0.635-0.128-1.232-0.12-1.667-0.081-0.059 0.005-0.114 0.011-0.167 0.017-0.009-0.326-0.050-0.768-0.179-1.267-0.267-1.038-0.911-2.319-2.396-3.284-1.48-0.962-2.953-1.080-4.048-0.957-0.546 0.061-1.001 0.182-1.321 0.289-0.052 0.017-0.101 0.034-0.146 0.051-0.059-0.087-0.13-0.189-0.214-0.3-0.278-0.368-0.699-0.849-1.269-1.302-1.148-0.912-2.901-1.709-5.279-1.243-2.403 0.471-3.71 2.056-4.403 3.488-0.346 0.714-0.544 1.397-0.655 1.9-0.040 0.179-0.069 0.337-0.090 0.466-0.116 0.012-0.255 0.029-0.41 0.055-0.47 0.078-1.106 0.236-1.762 0.553-1.331 0.644-2.722 1.942-2.98 4.472-0.261 2.558 1.002 4.066 2.312 4.907 0.646 0.415 1.304 0.669 1.797 0.82 0.247 0.076 0.455 0.126 0.604 0.158 0.074 0.016 0.133 0.027 0.175 0.035 0.021 0.004 0.037 0.006 0.049 0.008 0.006 0.001 0.011 0.002 0.014 0.002l0.004 0.001 0.002 0 0.001 0c0 0 0 0 0.065-0.44l-0.064 0.44 0.032 0.005h1.584v-0.889h-1.516c-0.004-0.001-0.009-0.002-0.015-0.003-0.032-0.006-0.081-0.015-0.144-0.029-0.127-0.027-0.31-0.071-0.53-0.139-0.441-0.135-1.018-0.36-1.577-0.718-1.1-0.706-2.127-1.921-1.908-4.069 0.222-2.175 1.382-3.23 2.483-3.762 0.56-0.271 1.109-0.408 1.521-0.476 0.205-0.034 0.374-0.051 0.489-0.059 0.058-0.004 0.102-0.006 0.131-0.007 0.014-0 0.025-0.001 0.031-0.001 0.003-0 0.005-0 0.006-0h0.41l0.032-0.409v-0.001l0-0.001c0-0.001 0-0.004 0.001-0.008 0.001-0.007 0.002-0.019 0.004-0.035 0.003-0.032 0.009-0.081 0.018-0.145 0.018-0.128 0.049-0.313 0.099-0.54 0.101-0.455 0.279-1.069 0.588-1.705 0.615-1.269 1.729-2.603 3.774-3.003z"></path>
<path d="M10.519 18.844h10.963c0.245 0 0.444 0.199 0.444 0.444s-0.199 0.444-0.444 0.444h-10.963c-0.245 0-0.444-0.199-0.444-0.444s0.199-0.444 0.444-0.444z"></path>
<path d="M10.815 25.956h10.963c0.245 0 0.444 0.199 0.444 0.444s-0.199 0.444-0.444 0.444h-10.963c-0.245 0-0.444-0.199-0.444-0.444s0.199-0.444 0.444-0.444z"></path>
<path d="M8.385 21.215h9.778c0.245 0 0.444 0.199 0.444 0.444s-0.199 0.444-0.444 0.444h-9.778c-0.245 0-0.444-0.199-0.444-0.444s0.199-0.444 0.444-0.444z"></path>
<path d="M20.593 21.215h2.667c0.245 0 0.444 0.199 0.444 0.444s-0.199 0.444-0.444 0.444h-2.667c-0.245 0-0.444-0.199-0.444-0.444s0.199-0.444 0.444-0.444z"></path>
<path d="M23.437 24.474h-9.778c-0.245 0-0.444-0.199-0.444-0.444s0.199-0.444 0.444-0.444h9.778c0.245 0 0.444 0.199 0.444 0.444s-0.199 0.444-0.444 0.444z"></path>
<path d="M11.23 24.474h-2.667c-0.245 0-0.444-0.199-0.444-0.444s0.199-0.444 0.444-0.444h2.667c0.245 0 0.444 0.199 0.444 0.444s-0.199 0.444-0.444 0.444z"></path>
</symbol>
<symbol id="icon-Clouds" viewBox="0 0 32 32">
<path d="M12.828 6.622c-0.585-0.029-1.208 0.011-1.864 0.139-2.686 0.526-4.261 2.381-5.032 3.973-0.354 0.73-0.557 1.419-0.686 1.969-0.519 0.099-1.158 0.272-1.819 0.592-1.514 0.732-3.193 2.4-3.477 5.182-0.289 2.83 1.236 4.795 2.716 5.745s2.997 1.156 2.997 1.156l0.096 0.014h21.62l0.149-0.035c0 0 1.327-0.289 2.558-1.241s2.408-2.871 1.841-5.325c-0.564-2.442-2.428-3.65-3.93-3.953-0.451-0.091-0.876-0.12-1.26-0.121-0.229-1.303-0.895-3.104-2.84-4.368-2.178-1.416-4.378-1.201-5.657-0.881-0.314-0.394-0.721-0.85-1.272-1.288-0.966-0.768-2.384-1.472-4.14-1.559zM12.725 9.271c1.135 0.042 1.946 0.49 2.582 0.996 0.849 0.675 1.235 1.393 1.235 1.393l0.611 1.144 1.16-0.579c0 0 1.974-1.040 4.129 0.361 2.142 1.393 1.76 3.41 1.76 3.41l-0.262 1.947 1.906-0.476c0 0 0.801-0.179 1.621-0.014s1.507 0.416 1.859 1.939c0.349 1.511-0.175 2.075-0.874 2.615-0.629 0.486-1.289 0.679-1.43 0.718h-21.046c-0.174-0.032-1.037-0.211-1.873-0.747-0.929-0.596-1.695-1.355-1.503-3.23 0.196-1.923 1.068-2.608 1.986-3.052s1.791-0.455 1.791-0.455h1.232l0.097-1.228c0 0 0.086-1.007 0.623-2.116s1.382-2.173 3.145-2.519c0.456-0.089 0.871-0.121 1.249-0.107z"></path>
</symbol>
<symbol id="icon-Error" viewBox="0 0 32 32">
<path d="M16 29.75c-7.594 0-13.75-6.156-13.75-13.75s6.156-13.75 13.75-13.75c7.594 0 13.75 6.156 13.75 13.75s-6.156 13.75-13.75 13.75zM16 27.25c6.213 0 11.25-5.037 11.25-11.25s-5.037-11.25-11.25-11.25c-6.213 0-11.25 5.037-11.25 11.25s5.037 11.25 11.25 11.25z"></path>
<path d="M16 24.25c1.243 0 2.25-1.007 2.25-2.25s-1.007-2.25-2.25-2.25c-1.243 0-2.25 1.007-2.25 2.25s1.007 2.25 2.25 2.25z"></path>
<path d="M18.25 9.75c0-1.243-1.007-2.25-2.25-2.25s-2.25 1.007-2.25 2.25v6.125c0 1.243 1.007 2.25 2.25 2.25s2.25-1.007 2.25-2.25v-6.125z"></path>
</symbol>
<symbol id="icon-Humidity" viewBox="0 0 32 32">
<path d="M16 3.027l-7.547 7.547c-4.15 4.15-4.15 10.93 0 15.080 2.074 2.074 4.813 3.12 7.547 3.12s5.472-1.046 7.547-3.12c4.15-4.15 4.15-10.93 0-15.080l-7.547-7.547zM16 6.798l5.661 5.661c3.128 3.128 3.128 8.18 0 11.309-1.563 1.563-3.603 2.339-5.661 2.339s-4.098-0.776-5.661-2.339c-3.128-3.128-3.128-8.18 0-11.309l5.661-5.661z"></path>
</symbol>
<symbol id="icon-Loading" viewBox="0 0 32 32">
<path d="M16 25.375c0.69 0 1.25-0.56 1.25-1.25s-0.56-1.25-1.25-1.25c-3.797 0-6.875-3.078-6.875-6.875 0-0.69-0.56-1.25-1.25-1.25s-1.25 0.56-1.25 1.25c0 5.178 4.197 9.375 9.375 9.375z"></path>
</symbol>
<symbol id="icon-Place" viewBox="0 0 32 32">
<path d="M16 16c-1.467 0-2.667-1.2-2.667-2.667s1.2-2.667 2.667-2.667c1.467 0 2.667 1.2 2.667 2.667s-1.2 2.667-2.667 2.667zM24 13.6c0-4.84-3.533-8.267-8-8.267s-8 3.427-8 8.267c0 3.12 2.6 7.253 8 12.187 5.4-4.933 8-9.067 8-12.187zM16 2.667c5.6 0 10.667 4.293 10.667 10.933 0 4.427-3.56 9.667-10.667 15.733-7.107-6.067-10.667-11.307-10.667-15.733 0-6.64 5.067-10.933 10.667-10.933z"></path>
</symbol>
<symbol id="icon-Pressure" viewBox="0 0 32 32">
<path d="M27.174 11.427l-1.64 2.467c0.791 1.577 1.178 3.326 1.127 5.090s-0.539 3.487-1.42 5.016h-18.48c-1.145-1.987-1.62-4.289-1.353-6.567s1.26-4.408 2.832-6.077 3.641-2.786 5.899-3.186c2.258-0.4 4.584-0.063 6.635 0.963l2.467-1.64c-2.511-1.61-5.49-2.332-8.46-2.049s-5.759 1.553-7.922 3.608c-2.163 2.055-3.573 4.776-4.007 7.728s0.135 5.963 1.616 8.554c0.233 0.403 0.567 0.738 0.969 0.972s0.859 0.358 1.324 0.361h18.467c0.47 0.002 0.932-0.121 1.339-0.355s0.746-0.572 0.981-0.979c1.229-2.128 1.845-4.554 1.781-7.011s-0.805-4.848-2.141-6.909l-0.013 0.013z"></path>
<path d="M14.12 20.547c0.248 0.248 0.542 0.445 0.865 0.579s0.671 0.203 1.021 0.203 0.697-0.069 1.021-0.203c0.324-0.134 0.618-0.331 0.865-0.579l7.547-11.32-11.32 7.547c-0.248 0.248-0.445 0.542-0.579 0.865s-0.203 0.671-0.203 1.021 0.069 0.697 0.203 1.021c0.134 0.324 0.331 0.618 0.579 0.865z"></path>
</symbol>
<symbol id="icon-Sun" viewBox="0 0 32 32">
<path d="M16 8.296c-4.242 0-7.704 3.462-7.704 7.704s3.462 7.704 7.704 7.704 7.704-3.462 7.704-7.704c0-4.242-3.462-7.704-7.704-7.704zM16 10.43c3.089 0 5.57 2.481 5.57 5.57s-2.481 5.57-5.57 5.57-5.57-2.481-5.57-5.57c0-3.089 2.481-5.57 5.57-5.57z"></path>
<path d="M16.924 2.133h-1.849v5.136h1.849z"></path>
<path d="M16.924 24.32h-1.849v5.136h1.849z"></path>
<path d="M24.731 14.665v1.849h5.136v-1.849z"></path>
<path d="M2.133 14.665v1.849h5.136v-1.849z"></path>
<path d="M7.164 5.276l-1.307 1.307 3.632 3.632 1.307-1.307z"></path>
<path d="M21.274 8.933l1.307 1.307 3.632-3.632-1.307-1.307z"></path>
<path d="M5.301 24.905l1.307 1.307 3.632-3.632-1.307-1.307z"></path>
<path d="M23.12 21.232l-1.307 1.307 3.632 3.632 1.307-1.307z"></path>
</symbol>
<symbol id="icon-Thermostat" viewBox="0 0 32 32">
<path d="M20 17.333v-10.667c0-2.213-1.787-4-4-4s-4 1.787-4 4v10.667c-1.613 1.213-2.667 3.16-2.667 5.333 0 3.68 2.987 6.667 6.667 6.667s6.667-2.987 6.667-6.667c0-2.173-1.053-4.12-2.667-5.333zM14.667 6.667c0-0.733 0.6-1.333 1.333-1.333s1.333 0.6 1.333 1.333h-1.333v1.333h1.333v2.667h-1.333v1.333h1.333v2.667h-2.667v-8z"></path>
</symbol>
<symbol id="icon-Wind" viewBox="0 0 32 32">
<path d="M21.57 7.467c0 2.513-1.955 4.569-4.426 4.73-0.054 0.007-0.11 0.010-0.166 0.010h-14.222c-0.736 0-1.333-0.597-1.333-1.333s0.597-1.333 1.333-1.333l14.015-0.001c0.020 0.001 0.039 0.001 0.059 0.001 1.145 0 2.074-0.929 2.074-2.074s-0.929-2.074-2.074-2.074c-1.126 0-2.042 0.897-2.073 2.015h-0.004c0.002 0.029 0.003 0.059 0.003 0.089 0 0.736-0.597 1.333-1.333 1.333s-1.333-0.597-1.333-1.333c0-0.030 0.001-0.059 0.003-0.089h-0.003c0.032-2.591 2.142-4.681 4.74-4.681 2.618 0 4.741 2.123 4.741 4.741zM25.007 24.533c0-2.513-1.955-4.569-4.426-4.73-0.054-0.007-0.11-0.010-0.166-0.010h-14.222c-0.736 0-1.333 0.597-1.333 1.333s0.597 1.333 1.333 1.333l14.015 0.001c0.020-0.001 0.039-0.001 0.059-0.001 1.145 0 2.074 0.929 2.074 2.074s-0.929 2.074-2.074 2.074c-1.126 0-2.042-0.897-2.073-2.015h-0.004c0.002-0.029 0.003-0.059 0.003-0.089 0-0.736-0.597-1.333-1.333-1.333s-1.333 0.597-1.333 1.333c0 0.030 0.001 0.059 0.003 0.089h-0.003c0.032 2.591 2.142 4.681 4.74 4.681 2.618 0 4.741-2.122 4.741-4.741zM26.092 17.293c2.472-0.162 4.426-2.218 4.426-4.73 0-2.618-2.122-4.741-4.741-4.741-2.598 0-4.709 2.091-4.74 4.681h0.003c-0.002 0.029-0.003 0.059-0.003 0.089 0 0.736 0.597 1.333 1.333 1.333s1.333-0.597 1.333-1.333c0-0.030-0.001-0.059-0.003-0.089h0.004c0.031-1.118 0.948-2.015 2.073-2.015 1.145 0 2.074 0.929 2.074 2.074s-0.929 2.074-2.074 2.074c-0.020 0-0.040-0-0.059-0.001v0.001h-18.874c-0.736 0-1.333 0.597-1.333 1.333s0.597 1.333 1.333 1.333h19.081c0.056 0 0.112-0.003 0.166-0.010z"></path>
</symbol>
</defs>
</svg>
