<svg width="540" height="540" viewBox="0 0 540 540" fill="none" xmlns="http://www.w3.org/2000/svg">
<path d="M373.611 270C373.611 327.223 327.223 373.611 270 373.611C212.777 373.611 166.389 327.223 166.389 270C166.389 212.777 212.777 166.389 270 166.389C327.223 166.389 373.611 212.777 373.611 270Z" stroke="#4AC4ED" stroke-width="15"/>
<rect x="262.593" y="70" width="14.8148" height="74.0741" fill="#4AC4ED"/>
<rect x="262.593" y="395.926" width="14.8148" height="74.0741" fill="#4AC4ED"/>
<rect x="395.926" y="277.407" width="14.8148" height="74.0741" transform="rotate(-90 395.926 277.407)" fill="#4AC4ED"/>
<rect x="70" y="277.407" width="14.8148" height="74.0741" transform="rotate(-90 70 277.407)" fill="#4AC4ED"/>
<rect x="123.701" y="134.176" width="14.8148" height="74.0741" transform="rotate(-45 123.701 134.176)" fill="#4AC4ED"/>
<rect x="364.92" y="186.928" width="14.8148" height="74.0741" transform="rotate(-135 364.92 186.928)" fill="#4AC4ED"/>
<rect x="134.55" y="417.298" width="14.8148" height="74.0741" transform="rotate(-135 134.55 417.298)" fill="#4AC4ED"/>
<rect x="353.841" y="364.317" width="14.8148" height="74.0741" transform="rotate(-45 353.841 364.317)" fill="#4AC4ED"/>
</svg>
