<svg width="540" height="540" viewBox="0 0 540 540" fill="none" xmlns="http://www.w3.org/2000/svg">
<mask id="path-1-inside-1" fill="white">
<path fill-rule="evenodd" clip-rule="evenodd" d="M470.495 349.429C441.573 364.334 408.76 372.748 373.982 372.748C257.46 372.748 163 278.289 163 161.767C163 129.272 170.346 98.493 183.468 71C115.488 106.033 69 176.918 69 258.662C69 375.184 163.46 469.644 279.982 469.644C364.009 469.644 436.563 420.522 470.495 349.429Z"/>
</mask>
<path d="M470.495 349.429L484.033 355.89L503.219 315.691L463.624 336.095L470.495 349.429ZM183.468 71L197.005 77.4611L216.192 37.2617L176.597 57.6664L183.468 71ZM463.624 336.095C436.777 349.931 406.314 357.748 373.982 357.748V387.748C411.206 387.748 446.369 378.737 477.367 362.763L463.624 336.095ZM373.982 357.748C265.744 357.748 178 270.004 178 161.767H148C148 286.573 249.175 387.748 373.982 387.748V357.748ZM178 161.767C178 131.555 184.826 102.979 197.005 77.4611L169.931 64.5389C155.866 94.0068 148 126.989 148 161.767H178ZM84 258.662C84 182.751 127.155 116.895 190.339 84.3336L176.597 57.6664C103.821 95.1703 54 171.085 54 258.662H84ZM279.982 454.644C171.744 454.644 84 366.9 84 258.662H54C54 383.468 155.175 484.644 279.982 484.644V454.644ZM456.958 342.968C425.422 409.042 358.013 454.644 279.982 454.644V484.644C370.006 484.644 447.705 432.003 484.033 355.89L456.958 342.968Z" fill="#4AC4ED" mask="url(#path-1-inside-1)"/>
</svg>
