<svg width="540" height="540" viewBox="0 0 540 540" fill="none" xmlns="http://www.w3.org/2000/svg">
<path fill-rule="evenodd" clip-rule="evenodd" d="M336.926 54H322.074V128.259H336.926V54ZM411.356 305.421C420.567 290.645 425.889 273.194 425.889 254.5C425.889 201.266 382.734 158.111 329.5 158.111C288.144 158.111 252.871 184.156 239.189 220.739C234.758 218.835 230.02 217.196 224.972 215.923C240.665 173.417 281.543 143.111 329.5 143.111C391.018 143.111 440.889 192.982 440.889 254.5C440.889 279.992 432.326 303.484 417.919 322.256C416.461 316.925 414.361 311.213 411.356 305.421ZM435.469 349.967C426.669 350.444 420.74 351.925 420.74 351.925C420.74 351.925 421.271 347.974 420.979 341.624L424.053 338.551L435.469 349.967ZM530 247.074H455.741V261.926H530V247.074ZM193.337 107.835L182.835 118.337L235.344 170.846L245.846 160.344L193.337 107.835ZM424.657 171.22L414.156 160.718L466.665 108.209L477.167 118.711L424.657 171.22Z" fill="#4AC4ED"/>
<path d="M88.8181 485H449.443C449.443 485 522.303 468.09 506.848 401.185C491.393 334.28 420.74 351.925 420.74 351.925C420.74 351.925 427.363 302.665 380.997 272.521C334.631 242.377 289.001 265.169 289.001 265.169C289.001 265.169 254.411 200.47 179.342 215.174C104.273 229.879 97.6497 313.694 97.6497 313.694C97.6497 313.694 19.6371 313.694 11.5414 393.097C3.44576 472.501 88.8181 485 88.8181 485Z" stroke="#4AC4ED" stroke-width="15"/>
</svg>
