<svg width="540" height="540" viewBox="0 0 540 540" fill="none" xmlns="http://www.w3.org/2000/svg">
<path d="M98.8181 346H459.443C459.443 346 532.303 329.09 516.848 262.185C501.393 195.28 430.74 212.925 430.74 212.925C430.74 212.925 437.363 163.665 390.997 133.521C344.631 103.377 299.001 126.169 299.001 126.169C299.001 126.169 264.411 61.4697 189.342 76.1741C114.273 90.8785 107.65 174.694 107.65 174.694C107.65 174.694 29.6371 174.694 21.5414 254.097C13.4458 333.501 98.8181 346 98.8181 346Z" stroke="#4AC4ED" stroke-width="15"/>
<rect x="70.4114" y="370" width="15" height="75" rx="7.5" transform="rotate(15 70.4114 370)" fill="#4AC4ED"/>
<rect x="209.411" y="370" width="15" height="75" rx="7.5" transform="rotate(15 209.411 370)" fill="#4AC4ED"/>
<rect x="348.411" y="366" width="15" height="75" rx="7.5" transform="rotate(15 348.411 366)" fill="#4AC4ED"/>
<rect x="136.411" y="412" width="15" height="75" rx="7.5" transform="rotate(15 136.411 412)" fill="#4AC4ED"/>
<rect x="275.411" y="412" width="15" height="75" rx="7.5" transform="rotate(15 275.411 412)" fill="#4AC4ED"/>
<rect x="414.411" y="408" width="15" height="75" rx="7.5" transform="rotate(15 414.411 408)" fill="#4AC4ED"/>
</svg>
