<svg width="540" height="540" viewBox="0 0 540 540" fill="none" xmlns="http://www.w3.org/2000/svg">
<path fill-rule="evenodd" clip-rule="evenodd" d="M190.784 83.5342C225.721 76.6909 250.957 88.2516 267.655 101.528C276.066 108.216 282.31 115.353 286.443 120.815C288.504 123.539 290.026 125.827 291.016 127.405C291.511 128.193 291.872 128.802 292.1 129.198C292.215 129.395 292.296 129.539 292.343 129.625L292.369 129.672L292.39 129.71L292.39 129.711L292.393 129.715L292.395 129.719L295.827 136.138L302.334 132.888L302.337 132.887L302.343 132.884L302.347 132.881L302.353 132.879L302.385 132.864C302.409 132.852 302.443 132.836 302.486 132.815C302.52 132.799 302.561 132.78 302.608 132.758L302.67 132.729C302.943 132.603 303.379 132.407 303.967 132.159C305.144 131.663 306.926 130.96 309.225 130.195C313.833 128.66 320.467 126.89 328.448 125.994C344.372 124.208 365.52 125.903 386.91 139.809C408.213 153.659 417.221 171.746 420.993 186.397C422.89 193.768 423.458 200.275 423.552 204.91C423.599 207.222 423.528 209.051 423.449 210.267C423.41 210.875 423.369 211.328 423.341 211.611C423.335 211.672 423.329 211.726 423.324 211.771L423.318 211.831L423.309 211.903L423.307 211.926L423.306 211.932L423.305 211.938L423.304 211.946L423.304 211.949L421.834 222.88L432.543 220.205L432.547 220.204L432.551 220.203L432.554 220.202L432.605 220.19L432.649 220.18C432.698 220.169 432.762 220.154 432.842 220.136C432.921 220.118 433.016 220.097 433.125 220.073C433.564 219.978 434.243 219.839 435.13 219.68C436.906 219.361 439.504 218.966 442.683 218.684C449.082 218.117 457.634 218.026 466.516 219.818C475.375 221.604 484.343 225.215 491.914 231.889C499.421 238.506 505.993 248.515 509.541 263.873C513.078 279.185 511.484 291.16 507.493 300.581C503.464 310.092 496.768 317.516 489.353 323.249C481.927 328.991 473.972 332.885 467.805 335.347C464.739 336.571 462.16 337.424 460.373 337.964C459.582 338.203 458.949 338.38 458.501 338.5H347.966L338.211 350.515L335.787 353.5H459.443H460.302L461.138 353.306L459.443 346C461.138 353.306 461.142 353.305 461.146 353.304L461.155 353.302L461.178 353.297L461.244 353.281C461.297 353.268 461.367 353.251 461.455 353.229C461.629 353.186 461.871 353.125 462.175 353.044C462.784 352.883 463.643 352.645 464.713 352.322C466.851 351.676 469.844 350.684 473.367 349.278C480.377 346.479 489.672 341.963 498.529 335.115C507.398 328.257 516.019 318.908 521.305 306.432C526.628 293.865 528.346 278.637 524.156 260.497C519.976 242.402 511.92 229.527 501.833 220.636C491.81 211.801 480.216 207.279 469.481 205.114C458.767 202.953 448.69 203.093 441.358 203.743C440.369 203.83 439.427 203.928 438.535 204.031C438.388 198.536 437.685 191.073 435.519 182.658C431.011 165.143 420.148 143.527 395.086 127.233C370.109 110.995 345.259 109.014 326.776 111.088C317.555 112.122 309.883 114.166 304.486 115.963C303.604 116.257 302.782 116.544 302.021 116.82C301.026 115.344 299.822 113.637 298.405 111.764C293.706 105.555 286.61 97.4357 276.99 89.787C257.625 74.3897 228.033 60.953 187.901 68.814C147.343 76.7584 125.301 103.512 113.595 127.679C107.758 139.731 104.419 151.251 102.536 159.744C101.864 162.771 101.374 165.428 101.021 167.605C99.061 167.804 96.7257 168.099 94.1002 168.536C86.1685 169.859 75.4354 172.512 64.3651 177.868C41.9013 188.736 18.4336 210.637 14.0802 253.337C9.67942 296.5 30.988 321.948 53.0926 336.137C64.0005 343.138 75.0973 347.432 83.409 349.978C87.5814 351.255 91.0958 352.106 93.5941 352.641C94.8445 352.909 95.8436 353.099 96.5473 353.224C96.8992 353.287 97.1775 353.333 97.3767 353.366C97.4763 353.382 97.5561 353.394 97.6155 353.403L97.6892 353.415L97.7144 353.418L97.724 353.42C97.7281 353.42 97.7317 353.421 98.8182 346L97.7317 353.421L98.2721 353.5H98.8182H231.166L231.174 353.473H190H172.836L183.873 340.328L185.409 338.5H99.4251C99.3501 338.487 99.2668 338.473 99.1755 338.456C98.6325 338.36 97.8054 338.203 96.7371 337.974C94.5983 337.516 91.5063 336.77 87.8015 335.635C80.3589 333.356 70.6186 329.562 61.1953 323.513C42.6377 311.602 25.3079 291.098 29.0028 254.858C32.745 218.154 52.3315 200.353 70.8979 191.37C80.3428 186.801 89.6188 184.491 96.5675 183.332C100.028 182.755 102.873 182.47 104.822 182.329C105.795 182.259 106.541 182.225 107.025 182.209C107.267 182.201 107.443 182.197 107.549 182.195C107.601 182.194 107.637 182.194 107.654 182.194L107.656 182.194L107.661 182.194L114.58 182.194L115.126 175.295L115.126 175.294L115.126 175.29L115.126 175.285L115.127 175.276C115.129 175.253 115.133 175.21 115.139 175.149C115.15 175.026 115.17 174.827 115.199 174.556C115.258 174.014 115.355 173.188 115.507 172.112C115.811 169.96 116.33 166.822 117.18 162.992C118.884 155.309 121.893 144.957 127.095 134.217C137.469 112.8 156.273 90.2942 190.784 83.5342ZM251.639 338.5L249.279 347.501L247.707 353.5H315.177L315.2 353.473H282.037H271.523L274.327 343.339L275.666 338.5H251.639ZM77.6558 371.941C73.6548 370.869 69.5423 373.243 68.4702 377.244L52.9411 435.2C51.869 439.201 54.2434 443.314 58.2444 444.386C62.2454 445.458 66.3579 443.083 67.43 439.082L82.9591 381.127C84.0312 377.126 81.6568 373.013 77.6558 371.941ZM346.47 373.244C347.542 369.243 351.655 366.869 355.656 367.941C359.657 369.013 362.031 373.126 360.959 377.127L345.43 435.082C344.358 439.083 340.245 441.458 336.244 440.386C332.243 439.314 329.869 435.201 330.941 431.2L346.47 373.244ZM143.656 413.941C139.655 412.869 135.542 415.243 134.47 419.244L118.941 477.2C117.869 481.201 120.243 485.314 124.244 486.386C128.245 487.458 132.358 485.083 133.43 481.082L148.959 423.127C150.031 419.126 147.657 415.013 143.656 413.941ZM412.47 415.244C413.542 411.243 417.655 408.869 421.656 409.941C425.657 411.013 428.031 415.126 426.959 419.127L411.43 477.082C410.358 481.083 406.245 483.458 402.244 482.386C398.243 481.314 395.869 477.201 396.941 473.2L412.47 415.244Z" fill="#4AC4ED"/>
<path d="M206 345.592L312.333 219L277.296 345.592H316L212.519 473L245.926 345.592H206Z" fill="#4AC4ED"/>
</svg>
