<svg width="256" height="256" viewBox="0 0 256 256" fill="none" xmlns="http://www.w3.org/2000/svg">
<path fill-rule="evenodd" clip-rule="evenodd" d="M128 238C188.751 238 238 188.751 238 128C238 67.2487 188.751 18 128 18C67.2487 18 18 67.2487 18 128C18 188.751 67.2487 238 128 238ZM128 218C177.706 218 218 177.706 218 128C218 78.2944 177.706 38 128 38C78.2944 38 38 78.2944 38 128C38 177.706 78.2944 218 128 218Z" fill="#4AC4ED"/>
<circle cx="128" cy="176" r="18" fill="#4AC4ED"/>
<rect x="110" y="60" width="36" height="85" rx="18" fill="#4AC4ED"/>
</svg>
