<svg width="540" height="540" viewBox="0 0 540 540" fill="none" xmlns="http://www.w3.org/2000/svg">
<path fill-rule="evenodd" clip-rule="evenodd" d="M270 502.031C398.147 502.031 502.031 398.147 502.031 270C502.031 141.853 398.147 37.9688 270 37.9688C141.853 37.9688 37.9688 141.853 37.9688 270C37.9688 398.147 141.853 502.031 270 502.031ZM270 459.844C374.849 459.844 459.844 374.849 459.844 270C459.844 165.152 374.849 80.1562 270 80.1562C165.152 80.1562 80.1562 165.152 80.1562 270C80.1562 374.849 165.152 459.844 270 459.844Z" fill="#4AC4ED"/>
<path d="M270 409.219C290.97 409.219 307.969 392.22 307.969 371.25C307.969 350.28 290.97 333.281 270 333.281C249.03 333.281 232.031 350.28 232.031 371.25C232.031 392.22 249.03 409.219 270 409.219Z" fill="#4AC4ED"/>
<path d="M307.969 164.531C307.969 143.562 290.97 126.562 270 126.562C249.03 126.562 232.031 143.562 232.031 164.531V267.891C232.031 288.86 249.03 305.859 270 305.859C290.97 305.859 307.969 288.86 307.969 267.891V164.531Z" fill="#4AC4ED"/>
</svg>
