<svg width="540" height="540" viewBox="0 0 540 540" fill="none" xmlns="http://www.w3.org/2000/svg">
<path d="M208.575 101.025C171.9 270.675 292.95 380.25 380.925 411.525C349.65 436.05 310.725 450 270 450C170.775 450 90 369.225 90 270C90 192.375 139.5 126 208.575 101.025ZM269.775 45.2252C144 45.2252 45 147.15 45 270C45 394.2 145.8 495 270 495C353.475 495 425.925 449.55 464.85 382.05C295.875 376.425 192.825 192.375 277.65 45.2252C274.95 45.2252 272.475 45.2252 269.775 45.2252Z" fill="#4AC4ED"/>
</svg>
