<svg width="540" height="540" viewBox="0 0 540 540" fill="none" xmlns="http://www.w3.org/2000/svg">
<path d="M270 270C245.25 270 225 249.75 225 225C225 200.25 245.25 180 270 180C294.75 180 315 200.25 315 225C315 249.75 294.75 270 270 270ZM405 229.5C405 147.825 345.375 90 270 90C194.625 90 135 147.825 135 229.5C135 282.15 178.875 351.9 270 435.15C361.125 351.9 405 282.15 405 229.5ZM270 45C364.5 45 450 117.45 450 229.5C450 304.2 389.925 392.625 270 495C150.075 392.625 90.0005 304.2 90.0005 229.5C90.0005 117.45 175.5 45 270 45Z" fill="#4AC4ED"/>
</svg>
