<svg width="540" height="540" viewBox="0 0 540 540" fill="none" xmlns="http://www.w3.org/2000/svg">
<path d="M458.554 192.825L430.879 234.45C444.226 261.07 450.76 290.583 449.896 320.348C449.032 350.113 440.797 379.199 425.929 405H114.079C94.7552 371.477 86.7479 332.62 91.2445 294.19C95.7412 255.757 112.502 219.798 139.042 191.642C165.582 163.486 200.489 144.631 238.587 137.873C276.686 131.115 315.949 136.814 350.554 154.125L392.179 126.45C349.8 99.2749 299.531 87.0975 249.414 91.8661C199.297 96.6345 152.226 118.073 115.732 152.753C79.2385 187.432 55.4295 233.35 48.1138 283.158C40.798 332.968 50.3982 383.791 75.3789 427.5C79.3053 434.302 84.9434 439.956 91.7326 443.905C98.5217 447.851 106.226 449.953 114.079 450H425.704C433.633 450.031 441.431 447.966 448.305 444.015C455.181 440.064 460.889 434.367 464.854 427.5C485.585 391.588 495.989 350.647 494.916 309.195C493.845 267.741 481.337 227.392 458.779 192.6L458.554 192.825Z" fill="#4AC4ED"/>
<path d="M238.276 346.725C242.454 350.91 247.417 354.228 252.88 356.492C258.343 358.758 264.2 359.923 270.113 359.923C276.026 359.923 281.883 358.758 287.346 356.492C292.809 354.228 297.772 350.91 301.951 346.725L429.301 155.7L238.276 283.05C234.091 287.228 230.772 292.191 228.508 297.654C226.243 303.117 225.077 308.974 225.077 314.887C225.077 320.8 226.243 326.657 228.508 332.12C230.772 337.583 234.091 342.546 238.276 346.725Z" fill="#4AC4ED"/>
</svg>
