<svg width="540" height="540" viewBox="0 0 540 540" fill="none" xmlns="http://www.w3.org/2000/svg">
<path d="M348.75 315H330.975L324.675 308.925C346.725 283.275 360 249.975 360 213.75C360 132.975 294.525 67.5 213.75 67.5C132.975 67.5 67.5 132.975 67.5 213.75C67.5 294.525 132.975 360 213.75 360C249.975 360 283.275 346.725 308.925 324.675L315 330.975V348.75L427.5 461.025L461.025 427.5L348.75 315ZM213.75 315C157.725 315 112.5 269.775 112.5 213.75C112.5 157.725 157.725 112.5 213.75 112.5C269.775 112.5 315 157.725 315 213.75C315 269.775 269.775 315 213.75 315Z" fill="#4AC4ED"/>
</svg>
