<svg width="540" height="540" viewBox="0 0 540 540" fill="none" xmlns="http://www.w3.org/2000/svg">
<path d="M382.001 269.999C382.001 331.856 331.856 381.999 270.001 381.999C208.146 381.999 158.001 331.856 158.001 269.999C158.001 208.144 208.146 158 270.001 158C331.856 158 382.001 208.144 382.001 269.999Z" stroke="#4AC4ED" stroke-width="36"/>
<path d="M285.599 36H254.399V122.667H285.599V36Z" fill="#4AC4ED"/>
<path d="M285.599 410.4H254.399V497.066H285.599V410.4Z" fill="#4AC4ED"/>
<path d="M417.331 247.467V278.667H503.998V247.467H417.331Z" fill="#4AC4ED"/>
<path d="M36 247.467V278.667H122.667V247.467H36Z" fill="#4AC4ED"/>
<path d="M120.895 89.0255L98.833 111.087L160.116 172.37L182.177 150.308L120.895 89.0255Z" fill="#4AC4ED"/>
<path d="M358.997 150.743L381.059 172.805L442.341 111.523L420.279 89.4608L358.997 150.743Z" fill="#4AC4ED"/>
<path d="M89.4627 420.278L111.524 442.339L172.807 381.057L150.745 358.995L89.4627 420.278Z" fill="#4AC4ED"/>
<path d="M390.156 358.289L368.095 380.351L429.377 441.634L451.439 419.572L390.156 358.289Z" fill="#4AC4ED"/>
</svg>
