<svg width="30" height="30" viewBox="0 0 30 30" fill="none" xmlns="http://www.w3.org/2000/svg">
<path d="M21.2222 15C21.2222 18.4365 18.4364 21.2222 15 21.2222C11.5636 21.2222 8.77777 18.4365 8.77777 15C8.77777 11.5636 11.5636 8.7778 15 8.7778C18.4364 8.7778 21.2222 11.5636 21.2222 15Z" stroke="#4AC4ED" stroke-width="2"/>
<rect x="14.1334" y="2" width="1.73333" height="4.81481" fill="#4AC4ED"/>
<rect x="14.1334" y="22.8" width="1.73333" height="4.81481" fill="#4AC4ED"/>
<rect x="23.1852" y="15.4815" width="1.73333" height="4.81481" transform="rotate(-90 23.1852 15.4815)" fill="#4AC4ED"/>
<rect x="2" y="15.4815" width="1.73333" height="4.81481" transform="rotate(-90 2 15.4815)" fill="#4AC4ED"/>
<rect x="5.49048" y="6.17148" width="1.73333" height="4.81481" transform="rotate(-45 5.49048 6.17148)" fill="#4AC4ED"/>
<rect x="21.1698" y="9.60031" width="1.73333" height="4.81481" transform="rotate(-135 21.1698 9.60031)" fill="#4AC4ED"/>
<rect x="6.19574" y="24.5744" width="1.73333" height="4.81481" transform="rotate(-135 6.19574 24.5744)" fill="#4AC4ED"/>
<rect x="20.4497" y="21.1306" width="1.73333" height="4.81481" transform="rotate(-45 20.4497 21.1306)" fill="#4AC4ED"/>
</svg>
