<svg width="540" height="540" viewBox="0 0 540 540" fill="none" xmlns="http://www.w3.org/2000/svg">
<path d="M337.5 292.5V112.5C337.5 75.15 307.35 45 270 45C232.65 45 202.5 75.15 202.5 112.5V292.5C175.275 312.975 157.5 345.825 157.5 382.5C157.5 444.6 207.9 495 270 495C332.1 495 382.5 444.6 382.5 382.5C382.5 345.825 364.725 312.975 337.5 292.5ZM247.5 112.5C247.5 100.125 257.625 90 270 90C282.375 90 292.5 100.125 292.5 112.5H270V135H292.5V180H270V202.5H292.5V247.5H247.5V112.5Z" fill="#4AC4ED"/>
</svg>
