<svg width="540" height="540" viewBox="0 0 540 540" fill="none" xmlns="http://www.w3.org/2000/svg">
<path fill-rule="evenodd" clip-rule="evenodd" d="M364 126C364 168.401 331.014 203.097 289.304 205.827C288.385 205.941 287.45 206 286.5 206H284H46.5C34.0736 206 24 195.926 24 183.5C24 171.074 34.0736 161 46.5 161H283V160.986C283.332 160.995 283.666 161 284 161C303.33 161 319 145.33 319 126C319 106.67 303.33 91 284 91C265.005 91 249.544 106.132 249.014 125H248.951C248.983 125.496 249 125.996 249 126.5C249 138.926 238.926 149 226.5 149C214.074 149 204 138.926 204 126.5C204 125.996 204.017 125.496 204.049 125H204.006C204.542 81.278 240.151 46 284 46C328.183 46 364 81.8172 364 126ZM422 414C422 371.599 389.014 336.903 347.304 334.173C346.385 334.059 345.45 334 344.5 334H342H104.5C92.0736 334 82 344.074 82 356.5C82 368.926 92.0736 379 104.5 379H341V379.014C341.332 379.005 341.666 379 342 379C361.33 379 377 394.67 377 414C377 433.33 361.33 449 342 449C323.005 449 307.544 433.868 307.014 415H306.951C306.983 414.504 307 414.004 307 413.5C307 401.074 296.926 391 284.5 391C272.074 391 262 401.074 262 413.5C262 414.004 262.017 414.504 262.049 415H262.006C262.542 458.722 298.151 494 342 494C386.183 494 422 458.183 422 414ZM440.304 291.827C482.014 289.097 515 254.401 515 212C515 167.817 479.183 132 435 132C391.151 132 355.542 167.278 355.006 211H355.049C355.017 211.496 355 211.996 355 212.5C355 224.926 365.074 235 377.5 235C389.926 235 400 224.926 400 212.5C400 211.996 399.983 211.496 399.951 211H400.014C400.544 192.132 416.005 177 435 177C454.33 177 470 192.67 470 212C470 231.33 454.33 247 435 247C434.666 247 434.332 246.995 434 246.986V247H115.5C103.074 247 93 257.074 93 269.5C93 281.926 103.074 292 115.5 292H435H437.5C438.45 292 439.385 291.941 440.304 291.827Z" fill="#4AC4ED"/>
</svg>
